<?xml version="1.0" encoding="UTF-8"?><svg xmlns="http://www.w3.org/2000/svg" xmlns:xlink="http://www.w3.org/1999/xlink" fill-opacity="1" color-rendering="auto" color-interpolation="auto" stroke="black" text-rendering="auto" stroke-linecap="square" width="760" stroke-miterlimit="10" stroke-opacity="1" shape-rendering="auto" fill="black" stroke-dasharray="none" font-weight="normal" stroke-width="1" height="458" font-family="'Dialog'" font-style="normal" stroke-linejoin="miter" font-size="12" stroke-dashoffset="0" image-rendering="auto">
  <!--Generated by ySVG-->
  <defs id="genericDefs"/>
  <g>
    <defs id="defs1">
      <clipPath clipPathUnits="userSpaceOnUse" id="clipPath1">
        <path d="M0 0 L760 0 L760 458 L0 458 L0 0 Z"/>
      </clipPath>
      <clipPath clipPathUnits="userSpaceOnUse" id="clipPath2">
        <path d="M-63 -115 L697 -115 L697 343 L-63 343 L-63 -115 Z"/>
      </clipPath>
    </defs>
    <g fill="white" transform="translate(63,115)" stroke="white">
      <rect x="-63" width="760" height="458" y="-115" clip-path="url(#clipPath2)" stroke="none"/>
    </g>
    <g id="y.node.0">
      <a target="_blank" xlink:type="simple" xlink:href="hal/" xlink:show="new">
        <g>
          <g font-size="14" stroke-miterlimit="1.45" font-weight="bold" font-family="sans-serif" transform="matrix(1,0,0,1,63,115)" stroke-linecap="butt">
            <text x="-42" xml:space="preserve" y="-57.9248" stroke="none">hal</text>
          </g>
          <g font-size="14" stroke-miterlimit="1.45" font-weight="bold" font-family="sans-serif" transform="matrix(1,0,0,1,63,115)" stroke-linecap="butt">
            <text x="-42" xml:space="preserve" y="-40.7734" stroke="none">kvm hypervisor</text>
          </g>
        </g>
        <g stroke-linecap="butt" transform="matrix(1,0,0,1,63,115)" stroke-miterlimit="1.45">
          <rect fill="none" x="-48" width="463" height="318.3808" y="-78"/>
        </g>
      </a>
    </g>
    <g id="y.node.1">
      <a target="_blank" xlink:type="simple" xlink:href="death/" xlink:show="new">
        <g fill="white" transform="matrix(1,0,0,1,63,115)" stroke="white">
          <rect x="200" width="96" height="70" y="-4.3096" stroke="none"/>
        </g>
        <g>
          <g font-size="14" stroke-miterlimit="1.45" font-weight="bold" font-family="sans-serif" transform="matrix(1,0,0,1,63,115)" stroke-linecap="butt">
            <text x="229.3311" xml:space="preserve" y="27.6142" stroke="none">death</text>
            <text x="230.5103" xml:space="preserve" y="44.7656" stroke="none">httpd</text>
          </g>
        </g>
        <g stroke-linecap="butt" transform="matrix(1,0,0,1,63,115)" stroke-miterlimit="1.45">
          <rect fill="none" x="200" width="96" height="70" y="-4.3096"/>
        </g>
      </a>
    </g>
    <g id="y.node.2">
      <a target="_blank" xlink:type="simple" xlink:href="maelstrom/" xlink:show="new">
        <g fill="white" transform="matrix(1,0,0,1,63,115)" stroke="white">
          <rect x="90" width="96" height="70" y="-4.3096" stroke="none"/>
        </g>
        <g>
          <g font-size="14" stroke-miterlimit="1.45" font-weight="bold" font-family="sans-serif" transform="matrix(1,0,0,1,63,115)" stroke-linecap="butt">
            <text x="102.5967" xml:space="preserve" y="27.6142" stroke="none">maelstrom</text>
            <text x="117.769" xml:space="preserve" y="44.7656" stroke="none">mysql</text>
          </g>
        </g>
        <g stroke-linecap="butt" transform="matrix(1,0,0,1,63,115)" stroke-miterlimit="1.45">
          <rect fill="none" x="90" width="96" height="70" y="-4.3096"/>
        </g>
      </a>
    </g>
    <g id="y.node.3">
      <a target="_blank" xlink:type="simple" xlink:href="tsunami/" xlink:show="new">
        <g fill="white" transform="matrix(1,0,0,1,63,115)" stroke="white">
          <rect x="200" width="96" height="70" y="76.6904" stroke="none"/>
        </g>
        <g>
          <g font-size="14" stroke-miterlimit="1.45" font-weight="bold" font-family="sans-serif" transform="matrix(1,0,0,1,63,115)" stroke-linecap="butt">
            <text x="221.1621" xml:space="preserve" y="108.6142" stroke="none">tsunami</text>
            <text x="231.2827" xml:space="preserve" y="125.7656" stroke="none">login</text>
          </g>
        </g>
        <g stroke-linecap="butt" transform="matrix(1,0,0,1,63,115)" stroke-miterlimit="1.45">
          <rect fill="none" x="200" width="96" height="70" y="76.6904"/>
        </g>
      </a>
    </g>
    <g id="y.node.4">
      <a target="_blank" xlink:type="simple" xlink:href="lightning/" xlink:show="new">
        <g fill="white" transform="matrix(1,0,0,1,63,115)" stroke="white">
          <rect x="-20" width="96" height="70" y="157.6904" stroke="none"/>
        </g>
        <g>
          <g font-size="14" stroke-miterlimit="1.45" font-weight="bold" font-family="sans-serif" transform="matrix(1,0,0,1,63,115)" stroke-linecap="butt">
            <text x="-1.5449" xml:space="preserve" y="189.6142" stroke="none">lightning</text>
            <text x="-5.8379" xml:space="preserve" y="206.7656" stroke="none">puppeteer</text>
          </g>
        </g>
        <g stroke-linecap="butt" transform="matrix(1,0,0,1,63,115)" stroke-miterlimit="1.45">
          <rect fill="none" x="-20" width="96" height="70" y="157.6904"/>
        </g>
      </a>
    </g>
    <g id="y.node.5">
      <a target="_blank" xlink:type="simple" xlink:href="supernova/" xlink:show="new">
        <g fill="white" transform="matrix(1,0,0,1,63,115)" stroke="white">
          <rect x="-20" width="96" height="70" y="76.6904" stroke="none"/>
        </g>
        <g>
          <g font-size="14" stroke-miterlimit="1.45" font-weight="bold" font-family="sans-serif" transform="matrix(1,0,0,1,63,115)" stroke-linecap="butt">
            <text x="-7.3999" xml:space="preserve" y="108.6142" stroke="none">supernova</text>
            <text x="-5.4414" xml:space="preserve" y="125.7656" stroke="none">staff login</text>
          </g>
        </g>
        <g stroke-linecap="butt" transform="matrix(1,0,0,1,63,115)" stroke-miterlimit="1.45">
          <rect fill="none" x="-20" width="96" height="70" y="76.6904"/>
        </g>
      </a>
    </g>
    <g id="y.node.6">
      <a target="_blank" xlink:type="simple" xlink:href="firestorm/" xlink:show="new">
        <g fill="white" transform="matrix(1,0,0,1,63,115)" stroke="white">
          <rect x="310" width="96" height="70" y="157.6904" stroke="none"/>
        </g>
        <g>
          <g font-size="14" stroke-miterlimit="1.45" font-weight="bold" font-family="sans-serif" transform="matrix(1,0,0,1,63,115)" stroke-linecap="butt">
            <text x="327.6587" xml:space="preserve" y="189.6142" stroke="none">firestorm</text>
            <text x="330.7725" xml:space="preserve" y="206.7656" stroke="none">ldap/krb</text>
          </g>
        </g>
        <g fill="red" stroke-miterlimit="1.45" transform="matrix(1,0,0,1,63,115)" stroke-linecap="butt" stroke="red">
          <rect fill="none" x="310" width="96" height="70" y="157.6904"/>
        </g>
      </a>
    </g>
    <g id="y.node.7">
      <g fill="white" transform="matrix(1,0,0,1,63,115)" stroke="white">
        <rect x="-36" width="96" height="70" y="-23.3096" stroke="none"/>
      </g>
      <g/>
      <g stroke-linecap="butt" transform="matrix(1,0,0,1,63,115)" stroke-miterlimit="1.45">
        <rect fill="none" x="-36" width="96" height="70" y="-23.3096"/>
      </g>
    </g>
    <g id="y.node.8">
      <g fill="white" transform="matrix(1,0,0,1,63,115)" stroke="white">
        <rect x="-28" width="96" height="70" y="-15.3096" stroke="none"/>
      </g>
      <g/>
      <g stroke-linecap="butt" transform="matrix(1,0,0,1,63,115)" stroke-miterlimit="1.45">
        <rect fill="none" x="-28" width="96" height="70" y="-15.3096"/>
      </g>
    </g>
    <g id="y.node.9">
      <g fill="white" transform="matrix(1,0,0,1,63,115)" stroke="white">
        <rect x="-20" width="96" height="70" y="-4.3096" stroke="none"/>
      </g>
      <g>
        <g font-size="14" stroke-miterlimit="1.45" font-weight="bold" font-family="sans-serif" transform="matrix(1,0,0,1,63,115)" stroke-linecap="butt">
          <text x="-2.7344" xml:space="preserve" y="36.1899" stroke="none">staff vms</text>
        </g>
      </g>
      <g stroke-linecap="butt" transform="matrix(1,0,0,1,63,115)" stroke-miterlimit="1.45">
        <rect fill="none" x="-20" width="96" height="70" y="-4.3096"/>
      </g>
    </g>
    <g id="y.node.10">
      <a target="_blank" xlink:type="simple" xlink:href="sandstorm/" xlink:show="new">
        <g fill="white" transform="matrix(1,0,0,1,63,115)" stroke="white">
          <rect x="90" width="96" height="70" y="76.6904" stroke="none"/>
        </g>
        <g>
          <g font-size="14" stroke-miterlimit="1.45" font-weight="bold" font-family="sans-serif" transform="matrix(1,0,0,1,63,115)" stroke-linecap="butt">
            <text x="102.2139" xml:space="preserve" y="108.6142" stroke="none">sandstorm</text>
            <text x="123.9932" xml:space="preserve" y="125.7656" stroke="none">mail</text>
          </g>
        </g>
        <g stroke-linecap="butt" transform="matrix(1,0,0,1,63,115)" stroke-miterlimit="1.45">
          <rect fill="none" x="90" width="96" height="70" y="76.6904"/>
        </g>
      </a>
    </g>
    <g id="y.node.11">
      <a target="_blank" xlink:type="simple" xlink:href="pox/" xlink:show="new">
        <g>
          <g font-size="14" stroke-miterlimit="1.45" font-weight="bold" font-family="sans-serif" transform="matrix(1,0,0,1,63,115)" stroke-linecap="butt">
            <text x="428.5" xml:space="preserve" y="-57.9248" stroke="none">pandemic</text>
            <text x="428.5" xml:space="preserve" y="-40.7734" stroke="none">disk array / kvm hypervisor</text>
          </g>
        </g>
        <g stroke-linecap="butt" transform="matrix(1,0,0,1,63,115)" stroke-miterlimit="1.45">
          <rect fill="none" x="422.5" width="259" height="156.2353" y="-78"/>
        </g>
      </a>
    </g>
    <g id="y.node.12">
      <g fill="white" transform="matrix(1,0,0,1,63,115)" stroke="white">
        <rect x="436" width="96" height="70" y="-23.8096" stroke="none"/>
      </g>
      <g/>
      <g stroke-linecap="butt" transform="matrix(1,0,0,1,63,115)" stroke-miterlimit="1.45">
        <rect fill="none" x="436" width="96" height="70" y="-23.8096"/>
      </g>
    </g>
    <g id="y.node.13">
      <g fill="white" transform="matrix(1,0,0,1,63,115)" stroke="white">
        <rect x="444" width="96" height="70" y="-15.8096" stroke="none"/>
      </g>
      <g/>
      <g stroke-linecap="butt" transform="matrix(1,0,0,1,63,115)" stroke-miterlimit="1.45">
        <rect fill="none" x="444" width="96" height="70" y="-15.8096"/>
      </g>
    </g>
    <g id="y.node.14">
      <g fill="white" transform="matrix(1,0,0,1,63,115)" stroke="white">
        <rect x="452" width="96" height="70" y="-4.8096" stroke="none"/>
      </g>
      <g>
        <g font-size="14" stroke-miterlimit="1.45" font-weight="bold" font-family="sans-serif" transform="matrix(1,0,0,1,63,115)" stroke-linecap="butt">
          <text x="472.769" xml:space="preserve" y="27.1142" stroke="none">(failover</text>
          <text x="469.6519" xml:space="preserve" y="44.2656" stroke="none">capacity)</text>
        </g>
      </g>
      <g stroke-linecap="butt" transform="matrix(1,0,0,1,63,115)" stroke-miterlimit="1.45">
        <rect fill="none" x="452" width="96" height="70" y="-4.8096"/>
      </g>
    </g>
    <g id="y.node.15">
      <a target="_blank" xlink:type="simple" xlink:href="pandemic/" xlink:show="new">
        <g fill="white" transform="matrix(1,0,0,1,63,115)" stroke="white">
          <rect x="562" width="96" height="70" y="-4.8096" stroke="none"/>
        </g>
        <g>
          <g font-size="14" stroke-miterlimit="1.45" font-weight="bold" font-family="sans-serif" transform="matrix(1,0,0,1,63,115)" stroke-linecap="butt">
            <text x="594.8379" xml:space="preserve" y="35.6899" stroke="none">(nfs)</text>
          </g>
        </g>
        <g stroke-dasharray="6,2" stroke-miterlimit="1.45" transform="matrix(1,0,0,1,63,115)" stroke-linecap="butt">
          <rect fill="none" x="562" width="96" height="70" y="-4.8096"/>
        </g>
      </a>
    </g>
    <g id="y.node.16">
      <a target="_blank" xlink:type="simple" xlink:href="typhoon/" xlink:show="new">
        <g fill="white" transform="matrix(1,0,0,1,63,115)" stroke="white">
          <rect x="310" width="96" height="70" y="-4.3096" stroke="none"/>
        </g>
        <g>
          <g font-size="14" stroke-miterlimit="1.45" font-weight="bold" font-family="sans-serif" transform="matrix(1,0,0,1,63,115)" stroke-linecap="butt">
            <text x="330.3965" xml:space="preserve" y="27.6142" stroke="none">typhoon</text>
            <text x="352.9448" xml:space="preserve" y="44.7656" stroke="none">rt</text>
          </g>
        </g>
        <g stroke-linecap="butt" transform="matrix(1,0,0,1,63,115)" stroke-miterlimit="1.45">
          <rect fill="none" x="310" width="96" height="70" y="-4.3096"/>
        </g>
      </a>
    </g>
    <g id="y.node.17">
      <g>
        <g stroke-miterlimit="1.45" font-family="sans-serif" transform="matrix(1,0,0,1,63,115)" stroke-linecap="butt">
          <text x="540.2004" xml:space="preserve" y="-84.0887" stroke="none">Last updated: 12/22/2012</text>
        </g>
      </g>
    </g>
    <g id="y.node.18">
      <a target="_blank" xlink:type="simple" xlink:href="blight/" xlink:show="new">
        <g fill="white" transform="matrix(1,0,0,1,63,115)" stroke="white">
          <rect x="310" width="96" height="70" y="76.6904" stroke="none"/>
        </g>
        <g>
          <g font-size="14" stroke-miterlimit="1.45" font-weight="bold" font-family="sans-serif" transform="matrix(1,0,0,1,63,115)" stroke-linecap="butt">
            <text x="338.9517" xml:space="preserve" y="108.6142" stroke="none">blight</text>
            <text x="342.8276" xml:space="preserve" y="125.7656" stroke="none"> wiki</text>
          </g>
        </g>
        <g stroke-linecap="butt" transform="matrix(1,0,0,1,63,115)" stroke-miterlimit="1.45">
          <rect fill="none" x="310" width="96" height="70" y="76.6904"/>
        </g>
      </a>
    </g>
    <g id="y.node.19">
      <a target="_blank" xlink:type="simple" xlink:href="pox/" xlink:show="new">
        <g>
          <g font-size="14" stroke-miterlimit="1.45" font-weight="bold" font-family="sans-serif" transform="matrix(1,0,0,1,63,115)" stroke-linecap="butt">
            <text x="428.5" xml:space="preserve" y="110.3779" stroke="none">fallingrocks</text>
            <text x="428.5" xml:space="preserve" y="127.5292" stroke="none">sorried users / kvm hypervisor</text>
          </g>
        </g>
        <g stroke-linecap="butt" transform="matrix(1,0,0,1,63,115)" stroke-miterlimit="1.45">
          <rect fill="none" x="422.5" width="259" height="237.3877" y="90.3027"/>
        </g>
      </a>
    </g>
    <g id="y.node.20">
      <g fill="white" transform="matrix(1,0,0,1,63,115)" stroke="white">
        <rect x="442" width="96" height="70" y="138.3808" stroke="none"/>
      </g>
      <g/>
      <g stroke-linecap="butt" transform="matrix(1,0,0,1,63,115)" stroke-miterlimit="1.45">
        <rect fill="none" x="442" width="96" height="70" y="138.3808"/>
      </g>
    </g>
    <g id="y.node.21">
      <g fill="white" transform="matrix(1,0,0,1,63,115)" stroke="white">
        <rect x="450" width="96" height="70" y="146.3808" stroke="none"/>
      </g>
      <g/>
      <g stroke-linecap="butt" transform="matrix(1,0,0,1,63,115)" stroke-miterlimit="1.45">
        <rect fill="none" x="450" width="96" height="70" y="146.3808"/>
      </g>
    </g>
    <g id="y.node.22">
      <a target="_blank" xlink:type="simple" xlink:href="mudslide/" xlink:show="new">
        <g fill="white" transform="matrix(1,0,0,1,63,115)" stroke="white">
          <rect x="200" width="96" height="70" y="157.6904" stroke="none"/>
        </g>
        <g>
          <g font-size="14" stroke-miterlimit="1.45" font-weight="bold" font-family="sans-serif" transform="matrix(1,0,0,1,63,115)" stroke-linecap="butt">
            <text x="217.2725" xml:space="preserve" y="189.6142" stroke="none">mudslide</text>
            <text x="221.1621" xml:space="preserve" y="206.7656" stroke="none">mumble</text>
          </g>
        </g>
        <g stroke-linecap="butt" transform="matrix(1,0,0,1,63,115)" stroke-miterlimit="1.45">
          <rect fill="none" x="200" width="96" height="70" y="157.6904"/>
        </g>
      </a>
    </g>
    <g id="y.node.23">
      <a target="_blank" xlink:type="simple" xlink:href="printhost/" xlink:show="new">
        <g fill="white" transform="matrix(1,0,0,1,63,115)" stroke="white">
          <rect x="90" width="96" height="70" y="157.6904" stroke="none"/>
        </g>
        <g>
          <g font-size="14" stroke-miterlimit="1.45" font-weight="bold" font-family="sans-serif" transform="matrix(1,0,0,1,63,115)" stroke-linecap="butt">
            <text x="107.6724" xml:space="preserve" y="189.6142" stroke="none">printhost</text>
            <text x="118.5518" xml:space="preserve" y="206.7656" stroke="none">CUPS</text>
          </g>
        </g>
        <g stroke-linecap="butt" transform="matrix(1,0,0,1,63,115)" stroke-miterlimit="1.45">
          <rect fill="none" x="90" width="96" height="70" y="157.6904"/>
        </g>
      </a>
    </g>
    <g id="y.node.24">
      <g fill="white" transform="matrix(1,0,0,1,63,115)" stroke="white">
        <rect x="458" width="96" height="70" y="157.3808" stroke="none"/>
      </g>
      <g>
        <g font-size="14" stroke-miterlimit="1.45" font-weight="bold" font-family="sans-serif" transform="matrix(1,0,0,1,63,115)" stroke-linecap="butt">
          <text x="478.769" xml:space="preserve" y="189.3046" stroke="none">(failover</text>
          <text x="475.6519" xml:space="preserve" y="206.4559" stroke="none">capacity)</text>
        </g>
      </g>
      <g stroke-linecap="butt" transform="matrix(1,0,0,1,63,115)" stroke-miterlimit="1.45">
        <rect fill="none" x="458" width="96" height="70" y="157.3808"/>
      </g>
    </g>
    <g id="y.node.25">
      <a target="_blank" xlink:type="simple" xlink:href="pestilence/" xlink:show="new">
        <g fill="white" transform="matrix(1,0,0,1,63,115)" stroke="white">
          <rect x="568" width="96" height="70" y="157.3808" stroke="none"/>
        </g>
        <g>
          <g font-size="14" stroke-miterlimit="1.45" font-weight="bold" font-family="sans-serif" transform="matrix(1,0,0,1,63,115)" stroke-linecap="butt">
            <text x="581.7622" xml:space="preserve" y="189.3046" stroke="none">pestilence</text>
            <text x="603.5552" xml:space="preserve" y="206.4559" stroke="none">dns</text>
          </g>
        </g>
        <g stroke-linecap="butt" transform="matrix(1,0,0,1,63,115)" stroke-miterlimit="1.45">
          <rect fill="none" x="568" width="96" height="70" y="157.3808"/>
        </g>
      </a>
    </g>
    <g id="y.node.26">
      <a target="_blank" xlink:type="simple" xlink:href="spy/" xlink:show="new">
        <g fill="white" transform="matrix(1,0,0,1,63,115)" stroke="white">
          <rect x="310" width="96" height="70" y="257.6904" stroke="none"/>
        </g>
        <g>
          <g font-size="14" stroke-miterlimit="1.45" font-weight="bold" font-family="sans-serif" transform="matrix(1,0,0,1,63,115)" stroke-linecap="butt">
            <text x="345.938" xml:space="preserve" y="289.6142" stroke="none">spy</text>
            <text x="338.5518" xml:space="preserve" y="306.7656" stroke="none">CUPS</text>
          </g>
        </g>
        <g stroke-linecap="butt" transform="matrix(1,0,0,1,63,115)" stroke-miterlimit="1.45">
          <rect fill="none" x="310" width="96" height="70" y="257.6904"/>
        </g>
      </a>
    </g>
    <g id="y.node.27">
      <a target="_blank" xlink:type="simple" xlink:href="diplomat/" xlink:show="new">
        <g fill="white" transform="matrix(1,0,0,1,63,115)" stroke="white">
          <rect x="200" width="96" height="70" y="257.6904" stroke="none"/>
        </g>
        <g>
          <g font-size="14" stroke-miterlimit="1.45" font-weight="bold" font-family="sans-serif" transform="matrix(1,0,0,1,63,115)" stroke-linecap="butt">
            <text x="218.8345" xml:space="preserve" y="289.6142" stroke="none">diplomat</text>
            <text x="230.1001" xml:space="preserve" y="306.7656" stroke="none">kiosk</text>
          </g>
        </g>
        <g stroke-linecap="butt" transform="matrix(1,0,0,1,63,115)" stroke-miterlimit="1.45">
          <rect fill="none" x="200" width="96" height="70" y="257.6904"/>
        </g>
      </a>
    </g>
    <g id="y.node.28">
      <a target="_blank" xlink:type="simple" xlink:href="flood/" xlink:show="new">
        <g fill="white" transform="matrix(1,0,0,1,63,115)" stroke="white">
          <rect x="568" width="96" height="70" y="238.3808" stroke="none"/>
        </g>
        <g>
          <g font-size="14" stroke-miterlimit="1.45" font-weight="bold" font-family="sans-serif" transform="matrix(1,0,0,1,63,115)" stroke-linecap="butt">
            <text x="598.8965" xml:space="preserve" y="270.3046" stroke="none">flood</text>
            <text x="607.438" xml:space="preserve" y="287.456" stroke="none">irc</text>
          </g>
        </g>
        <g stroke-linecap="butt" transform="matrix(1,0,0,1,63,115)" stroke-miterlimit="1.45">
          <rect fill="none" x="568" width="96" height="70" y="238.3808"/>
        </g>
      </a>
    </g>
    <g id="y.edge.0"/>
  </g>
</svg>
