<?xml version="1.0" encoding="UTF-8"?><svg xmlns="http://www.w3.org/2000/svg" xmlns:xlink="http://www.w3.org/1999/xlink" fill-opacity="1" color-rendering="auto" color-interpolation="auto" stroke="black" text-rendering="auto" stroke-linecap="square" width="760" stroke-miterlimit="10" stroke-opacity="1" shape-rendering="auto" fill="black" stroke-dasharray="none" font-weight="normal" stroke-width="1" height="613" font-family="'Dialog'" font-style="normal" stroke-linejoin="miter" font-size="12" stroke-dashoffset="0" image-rendering="auto">
  <!--Generated by ySVG-->
  <defs id="genericDefs"/>
  <g>
    <defs id="defs1">
      <clipPath clipPathUnits="userSpaceOnUse" id="clipPath1">
        <path d="M0 0 L760 0 L760 613 L0 613 L0 0 Z"/>
      </clipPath>
      <clipPath clipPathUnits="userSpaceOnUse" id="clipPath2">
        <path d="M-63 -115 L697 -115 L697 498 L-63 498 L-63 -115 Z"/>
      </clipPath>
    </defs>
    <g fill="white" transform="translate(63,115)" stroke="white">
      <rect x="-63" width="760" height="613" y="-115" clip-path="url(#clipPath2)" stroke="none"/>
    </g>
    <g id="y.node.0">
      <a target="_blank" xlink:type="simple" xlink:href="hal/" xlink:show="new">
        <g>
          <g font-size="14" stroke-miterlimit="1.45" font-weight="bold" font-family="sans-serif" transform="matrix(1,0,0,1,63,115)" stroke-linecap="butt">
            <text x="-42" xml:space="preserve" y="-57.9248" stroke="none">hal</text>
          </g>
          <g font-size="14" stroke-miterlimit="1.45" font-weight="bold" font-family="sans-serif" transform="matrix(1,0,0,1,63,115)" stroke-linecap="butt">
            <text x="-42" xml:space="preserve" y="-40.7734" stroke="none">kvm hypervisor</text>
          </g>
        </g>
        <g stroke-linecap="butt" transform="matrix(1,0,0,1,63,115)" stroke-miterlimit="1.45">
          <rect fill="none" x="-48" width="463" height="295" y="-78"/>
        </g>
      </a>
    </g>
    <g id="y.node.1">
      <a target="_blank" xlink:type="simple" xlink:href="flood/" xlink:show="new">
        <g fill="white" transform="matrix(1,0,0,1,63,115)" stroke="white">
          <rect x="565" width="96" height="70" y="143.7615" stroke="none"/>
        </g>
        <g>
          <g font-size="14" stroke-miterlimit="1.45" font-weight="bold" font-family="sans-serif" transform="matrix(1,0,0,1,63,115)" stroke-linecap="butt">
            <text x="595.8965" xml:space="preserve" y="175.6853" stroke="none">flood</text>
            <text x="604.438" xml:space="preserve" y="192.8367" stroke="none">irc</text>
          </g>
        </g>
        <g stroke-linecap="butt" transform="matrix(1,0,0,1,63,115)" stroke-miterlimit="1.45">
          <rect fill="none" x="565" width="96" height="70" y="143.7615"/>
        </g>
      </a>
    </g>
    <g id="y.node.2">
      <a target="_blank" xlink:type="simple" xlink:href="death/" xlink:show="new">
        <g fill="white" transform="matrix(1,0,0,1,63,115)" stroke="white">
          <rect x="200" width="96" height="70" y="-43" stroke="none"/>
        </g>
        <g>
          <g font-size="14" stroke-miterlimit="1.45" font-weight="bold" font-family="sans-serif" transform="matrix(1,0,0,1,63,115)" stroke-linecap="butt">
            <text x="229.3311" xml:space="preserve" y="-11.0762" stroke="none">death</text>
            <text x="230.5103" xml:space="preserve" y="6.0752" stroke="none">httpd</text>
          </g>
        </g>
        <g fill="rgb(51,102,255)" stroke-miterlimit="1.45" transform="matrix(1,0,0,1,63,115)" stroke-linecap="butt" stroke="rgb(51,102,255)">
          <rect fill="none" x="200" width="96" height="70" y="-43"/>
        </g>
      </a>
    </g>
    <g id="y.node.3">
      <g fill="white" transform="matrix(1,0,0,1,63,115)" stroke="white">
        <rect x="90" width="96" height="70" y="-43" stroke="none"/>
      </g>
      <g>
        <g font-size="14" stroke-miterlimit="1.45" font-weight="bold" font-family="sans-serif" transform="matrix(1,0,0,1,63,115)" stroke-linecap="butt">
          <text x="102.5967" xml:space="preserve" y="-11.0762" stroke="none">maelstrom</text>
          <text x="117.769" xml:space="preserve" y="6.0752" stroke="none">mysql</text>
        </g>
      </g>
      <g fill="rgb(51,102,255)" stroke-miterlimit="1.45" transform="matrix(1,0,0,1,63,115)" stroke-linecap="butt" stroke="rgb(51,102,255)">
        <rect fill="none" x="90" width="96" height="70" y="-43"/>
      </g>
    </g>
    <g id="y.node.4">
      <a target="_blank" xlink:type="simple" xlink:href="pollution/" xlink:show="new">
        <g fill="white" transform="matrix(1,0,0,1,63,115)" stroke="white">
          <rect x="200" width="96" height="70" y="46" stroke="none"/>
        </g>
        <g>
          <g font-size="14" stroke-miterlimit="1.45" font-weight="bold" font-family="sans-serif" transform="matrix(1,0,0,1,63,115)" stroke-linecap="butt">
            <text x="218.4551" xml:space="preserve" y="77.9238" stroke="none">pollution</text>
            <text x="223.4932" xml:space="preserve" y="95.0752" stroke="none">backup</text>
          </g>
        </g>
        <g stroke-linecap="butt" transform="matrix(1,0,0,1,63,115)" stroke-miterlimit="1.45">
          <rect fill="none" x="200" width="96" height="70" y="46"/>
        </g>
      </a>
    </g>
    <g id="y.node.5">
      <a target="_blank" xlink:type="simple" xlink:href="pox/" xlink:show="new">
        <g>
          <g font-size="14" stroke-miterlimit="1.45" font-weight="bold" font-family="sans-serif" transform="matrix(1,0,0,1,63,115)" stroke-linecap="butt">
            <text x="430" xml:space="preserve" y="345.0752" stroke="none">pox</text>
            <text x="430" xml:space="preserve" y="362.2266" stroke="none">ESXi hypervisor</text>
          </g>
        </g>
        <g stroke-linecap="butt" transform="matrix(1,0,0,1,63,115)" stroke-miterlimit="1.45">
          <rect fill="none" x="424" width="257.5" height="158" y="325"/>
        </g>
      </a>
    </g>
    <g id="y.node.6">
      <a target="_blank" xlink:type="simple" xlink:href="tsunami/" xlink:show="new">
        <g fill="white" transform="matrix(1,0,0,1,63,115)" stroke="white">
          <rect x="452" width="96" height="70" y="388.3594" stroke="none"/>
        </g>
        <g>
          <g font-size="14" stroke-miterlimit="1.45" font-weight="bold" font-family="sans-serif" transform="matrix(1,0,0,1,63,115)" stroke-linecap="butt">
            <text x="473.1621" xml:space="preserve" y="420.2832" stroke="none">tsunami</text>
            <text x="483.2827" xml:space="preserve" y="437.4345" stroke="none">login</text>
          </g>
        </g>
        <g fill="rgb(51,102,255)" stroke-miterlimit="1.45" transform="matrix(1,0,0,1,63,115)" stroke-linecap="butt" stroke="rgb(51,102,255)">
          <rect fill="none" x="452" width="96" height="70" y="388.3594"/>
        </g>
      </a>
    </g>
    <g id="y.node.7">
      <a target="_blank" xlink:type="simple" xlink:href="pileup/" xlink:show="new">
        <g fill="white" transform="matrix(1,0,0,1,63,115)" stroke="white">
          <rect x="310" width="96" height="70" y="391" stroke="none"/>
        </g>
        <g>
          <g font-size="14" stroke-linecap="butt" transform="matrix(1,0,0,1,63,115)" fill="rgb(153,153,153)" font-family="sans-serif" stroke="rgb(153,153,153)" stroke-miterlimit="1.45">
            <text x="339.3174" xml:space="preserve" y="422.9238" stroke="none">pileup</text>
            <text x="318.6934" xml:space="preserve" y="440.0752" stroke="none">second login</text>
          </g>
        </g>
        <g fill="rgb(153,153,153)" stroke-miterlimit="1.45" transform="matrix(1,0,0,1,63,115)" stroke-linecap="butt" stroke="rgb(153,153,153)">
          <rect fill="none" x="310" width="96" height="70" y="391"/>
        </g>
      </a>
    </g>
    <g id="y.node.8">
      <a target="_blank" xlink:type="simple" xlink:href="lightning/" xlink:show="new">
        <g fill="white" transform="matrix(1,0,0,1,63,115)" stroke="white">
          <rect x="310" width="96" height="70" y="46" stroke="none"/>
        </g>
        <g>
          <g font-size="14" stroke-miterlimit="1.45" font-weight="bold" font-family="sans-serif" transform="matrix(1,0,0,1,63,115)" stroke-linecap="butt">
            <text x="328.4551" xml:space="preserve" y="77.9238" stroke="none">lightning</text>
            <text x="324.1621" xml:space="preserve" y="95.0752" stroke="none">puppeteer</text>
          </g>
        </g>
        <g stroke-linecap="butt" transform="matrix(1,0,0,1,63,115)" stroke-miterlimit="1.45">
          <rect fill="none" x="310" width="96" height="70" y="46"/>
        </g>
      </a>
    </g>
    <g id="y.node.9">
      <a target="_blank" xlink:type="simple" xlink:href="pestilence/" xlink:show="new">
        <g fill="white" transform="matrix(1,0,0,1,63,115)" stroke="white">
          <rect x="450" width="96" height="70" y="230.3808" stroke="none"/>
        </g>
        <g>
          <g font-size="14" stroke-miterlimit="1.45" font-weight="bold" font-family="sans-serif" transform="matrix(1,0,0,1,63,115)" stroke-linecap="butt">
            <text x="463.7622" xml:space="preserve" y="262.3046" stroke="none">pestilence</text>
            <text x="485.5552" xml:space="preserve" y="279.456" stroke="none">dns</text>
          </g>
        </g>
        <g fill="rgb(51,102,255)" stroke-miterlimit="1.45" transform="matrix(1,0,0,1,63,115)" stroke-linecap="butt" stroke="rgb(51,102,255)">
          <rect fill="none" x="450" width="96" height="70" y="230.3808"/>
        </g>
      </a>
    </g>
    <g id="y.node.10">
      <a target="_blank" xlink:type="simple" xlink:href="supernova/" xlink:show="new">
        <g fill="white" transform="matrix(1,0,0,1,63,115)" stroke="white">
          <rect x="-20" width="96" height="70" y="233" stroke="none"/>
        </g>
        <g>
          <g font-size="14" stroke-miterlimit="1.45" font-weight="bold" font-family="sans-serif" transform="matrix(1,0,0,1,63,115)" stroke-linecap="butt">
            <text x="-7.3999" xml:space="preserve" y="264.9238" stroke="none">supernova</text>
            <text x="-5.4414" xml:space="preserve" y="282.0752" stroke="none">staff login</text>
          </g>
        </g>
        <g stroke-linecap="butt" transform="matrix(1,0,0,1,63,115)" stroke-miterlimit="1.45">
          <rect fill="none" x="-20" width="96" height="70" y="233"/>
        </g>
      </a>
    </g>
    <g id="y.node.11">
      <g fill="white" transform="matrix(1,0,0,1,63,115)" stroke="white">
        <rect x="90" width="96" height="70" y="235" stroke="none"/>
      </g>
      <g>
        <g font-size="14" stroke-linecap="butt" transform="matrix(1,0,0,1,63,115)" fill="rgb(153,153,153)" font-family="sans-serif" stroke="rgb(153,153,153)" stroke-miterlimit="1.45">
          <text x="109.9863" xml:space="preserve" y="266.9238" stroke="none">epidemic</text>
          <text x="117.376" xml:space="preserve" y="284.0752" stroke="none">old nfs</text>
        </g>
      </g>
      <g fill="rgb(153,153,153)" stroke-miterlimit="1.45" transform="matrix(1,0,0,1,63,115)" stroke-linecap="butt" stroke="rgb(153,153,153)">
        <rect fill="none" x="90" width="96" height="70" y="235"/>
      </g>
    </g>
    <g id="y.node.12">
      <a target="_blank" xlink:type="simple" xlink:href="emp/" xlink:show="new">
        <g fill="white" transform="matrix(1,0,0,1,63,115)" stroke="white">
          <rect x="-20" width="96" height="70" y="311" stroke="none"/>
        </g>
        <g>
          <g font-size="14" stroke-miterlimit="1.45" font-weight="bold" font-family="sans-serif" transform="matrix(1,0,0,1,63,115)" stroke-linecap="butt">
            <text x="13.6069" xml:space="preserve" y="342.9238" stroke="none">emp</text>
            <text x="6.2173" xml:space="preserve" y="360.0752" stroke="none">zabbix</text>
          </g>
        </g>
        <g stroke-linecap="butt" transform="matrix(1,0,0,1,63,115)" stroke-miterlimit="1.45">
          <rect fill="none" x="-20" width="96" height="70" y="311"/>
        </g>
      </a>
    </g>
    <g id="y.node.13">
      <a target="_blank" xlink:type="simple" xlink:href="firestorm/" xlink:show="new">
        <g fill="white" transform="matrix(1,0,0,1,63,115)" stroke="white">
          <rect x="200" width="96" height="70" y="135" stroke="none"/>
        </g>
        <g>
          <g font-size="14" stroke-miterlimit="1.45" font-weight="bold" font-family="sans-serif" transform="matrix(1,0,0,1,63,115)" stroke-linecap="butt">
            <text x="217.6587" xml:space="preserve" y="166.9238" stroke="none">firestorm</text>
            <text x="220.7725" xml:space="preserve" y="184.0752" stroke="none">ldap/krb</text>
          </g>
        </g>
        <g fill="red" stroke-miterlimit="1.45" transform="matrix(1,0,0,1,63,115)" stroke-linecap="butt" stroke="red">
          <rect fill="none" x="200" width="96" height="70" y="135"/>
        </g>
      </a>
    </g>
    <g id="y.node.14">
      <a target="_blank" xlink:type="simple" xlink:href="tempest/" xlink:show="new">
        <g fill="white" transform="matrix(1,0,0,1,63,115)" stroke="white">
          <rect x="200" width="96" height="70" y="311" stroke="none"/>
        </g>
        <g>
          <g font-size="14" stroke-linecap="butt" transform="matrix(1,0,0,1,63,115)" fill="rgb(153,153,153)" font-family="sans-serif" stroke="rgb(153,153,153)" stroke-miterlimit="1.45">
            <text x="223.1001" xml:space="preserve" y="342.9238" stroke="none">tempest</text>
            <text x="210.2485" xml:space="preserve" y="360.0752" stroke="none">ldap backup</text>
          </g>
        </g>
        <g fill="rgb(153,153,153)" stroke-miterlimit="1.45" transform="matrix(1,0,0,1,63,115)" stroke-linecap="butt" stroke="rgb(153,153,153)">
          <rect fill="none" x="200" width="96" height="70" y="311"/>
        </g>
      </a>
    </g>
    <g id="y.node.15">
      <g fill="white" transform="matrix(1,0,0,1,63,115)" stroke="white">
        <rect x="-36" width="96" height="70" y="27" stroke="none"/>
      </g>
      <g/>
      <g stroke-linecap="butt" transform="matrix(1,0,0,1,63,115)" stroke-miterlimit="1.45">
        <rect fill="none" x="-36" width="96" height="70" y="27"/>
      </g>
    </g>
    <g id="y.node.16">
      <g fill="white" transform="matrix(1,0,0,1,63,115)" stroke="white">
        <rect x="-28" width="96" height="70" y="35" stroke="none"/>
      </g>
      <g/>
      <g stroke-linecap="butt" transform="matrix(1,0,0,1,63,115)" stroke-miterlimit="1.45">
        <rect fill="none" x="-28" width="96" height="70" y="35"/>
      </g>
    </g>
    <g id="y.node.17">
      <g fill="white" transform="matrix(1,0,0,1,63,115)" stroke="white">
        <rect x="-20" width="96" height="70" y="46" stroke="none"/>
      </g>
      <g>
        <g font-size="14" stroke-miterlimit="1.45" font-weight="bold" font-family="sans-serif" transform="matrix(1,0,0,1,63,115)" stroke-linecap="butt">
          <text x="-2.7344" xml:space="preserve" y="86.4995" stroke="none">staff vms</text>
        </g>
      </g>
      <g stroke-linecap="butt" transform="matrix(1,0,0,1,63,115)" stroke-miterlimit="1.45">
        <rect fill="none" x="-20" width="96" height="70" y="46"/>
      </g>
    </g>
    <g id="y.node.18">
      <a target="_blank" xlink:type="simple" xlink:href="biohazard/" xlink:show="new">
        <g fill="white" transform="matrix(1,0,0,1,63,115)" stroke="white">
          <rect x="310" width="96" height="70" y="233" stroke="none"/>
        </g>
        <g>
          <g font-size="14" stroke-linecap="butt" transform="matrix(1,0,0,1,63,115)" fill="rgb(153,153,153)" font-family="sans-serif" stroke="rgb(153,153,153)" stroke-miterlimit="1.45">
            <text x="327.2554" xml:space="preserve" y="264.9238" stroke="none">biohazard</text>
            <text x="348.2759" xml:space="preserve" y="282.0752" stroke="none">AD</text>
          </g>
        </g>
        <g fill="rgb(153,153,153)" stroke-miterlimit="1.45" transform="matrix(1,0,0,1,63,115)" stroke-linecap="butt" stroke="rgb(153,153,153)">
          <rect fill="none" x="310" width="96" height="70" y="233"/>
        </g>
      </a>
    </g>
    <g id="y.node.19">
      <a target="_blank" xlink:type="simple" xlink:href="tornado/" xlink:show="new">
        <g fill="white" transform="matrix(1,0,0,1,63,115)" stroke="white">
          <rect x="310" width="96" height="70" y="311" stroke="none"/>
        </g>
        <g>
          <g font-size="14" stroke-linecap="butt" transform="matrix(1,0,0,1,63,115)" fill="rgb(153,153,153)" font-family="sans-serif" stroke="rgb(153,153,153)" stroke-miterlimit="1.45">
            <text x="334.2588" xml:space="preserve" y="342.9238" stroke="none">tornado</text>
            <text x="323.7588" xml:space="preserve" y="360.0752" stroke="none">AD backup</text>
          </g>
        </g>
        <g fill="rgb(153,153,153)" stroke-miterlimit="1.45" transform="matrix(1,0,0,1,63,115)" stroke-linecap="butt" stroke="rgb(153,153,153)">
          <rect fill="none" x="310" width="96" height="70" y="311"/>
        </g>
      </a>
    </g>
    <g id="y.node.20">
      <a target="_blank" xlink:type="simple" xlink:href="jaws/" xlink:show="new">
        <g fill="white" transform="matrix(1,0,0,1,63,115)" stroke="white">
          <rect x="562" width="96" height="70" y="388.3594" stroke="none"/>
        </g>
        <g>
          <g font-size="14" stroke-linecap="butt" transform="matrix(1,0,0,1,63,115)" fill="rgb(153,153,153)" font-family="sans-serif" stroke="rgb(153,153,153)" stroke-miterlimit="1.45">
            <text x="595.9966" xml:space="preserve" y="420.2832" stroke="none">jaws</text>
            <text x="587.0483" xml:space="preserve" y="437.4345" stroke="none">old wiki</text>
          </g>
        </g>
        <g fill="rgb(153,153,153)" stroke-miterlimit="1.45" transform="matrix(1,0,0,1,63,115)" stroke-linecap="butt" stroke="rgb(153,153,153)">
          <rect fill="none" x="562" width="96" height="70" y="388.3594"/>
        </g>
      </a>
    </g>
    <g id="y.node.21">
      <a target="_blank" xlink:type="simple" xlink:href="sandstorm/" xlink:show="new">
        <g fill="white" transform="matrix(1,0,0,1,63,115)" stroke="white">
          <rect x="90" width="96" height="70" y="46" stroke="none"/>
        </g>
        <g>
          <g font-size="14" stroke-miterlimit="1.45" font-weight="bold" font-family="sans-serif" transform="matrix(1,0,0,1,63,115)" stroke-linecap="butt">
            <text x="102.2139" xml:space="preserve" y="77.9238" stroke="none">sandstorm</text>
            <text x="123.9932" xml:space="preserve" y="95.0752" stroke="none">mail</text>
          </g>
        </g>
        <g fill="rgb(51,102,255)" stroke-miterlimit="1.45" transform="matrix(1,0,0,1,63,115)" stroke-linecap="butt" stroke="rgb(51,102,255)">
          <rect fill="none" x="90" width="96" height="70" y="46"/>
        </g>
      </a>
    </g>
    <g id="y.node.22">
      <a target="_blank" xlink:type="simple" xlink:href="blackhole/" xlink:show="new">
        <g fill="white" transform="matrix(1,0,0,1,63,115)" stroke="white">
          <rect x="-20" width="96" height="70" y="391" stroke="none"/>
        </g>
        <g>
          <g font-size="14" stroke-miterlimit="1.45" font-weight="bold" font-family="sans-serif" transform="matrix(1,0,0,1,63,115)" stroke-linecap="butt">
            <text x="-4.2896" xml:space="preserve" y="422.9238" stroke="none">blackhole</text>
            <text x="-13.2378" xml:space="preserve" y="440.0752" stroke="none">mail storage</text>
          </g>
        </g>
        <g stroke-linecap="butt" transform="matrix(1,0,0,1,63,115)" stroke-miterlimit="1.45">
          <rect fill="none" x="-20" width="96" height="70" y="391"/>
        </g>
      </a>
    </g>
    <g id="y.node.23">
      <a target="_blank" xlink:type="simple" xlink:href="pox/" xlink:show="new">
        <g>
          <g font-size="14" stroke-miterlimit="1.45" font-weight="bold" font-family="sans-serif" transform="matrix(1,0,0,1,63,115)" stroke-linecap="butt">
            <text x="428.5" xml:space="preserve" y="-57.9248" stroke="none">pandemic</text>
            <text x="428.5" xml:space="preserve" y="-40.7734" stroke="none">disk array / kvm hypervisor</text>
          </g>
        </g>
        <g stroke-linecap="butt" transform="matrix(1,0,0,1,63,115)" stroke-miterlimit="1.45">
          <rect fill="none" x="422.5" width="259" height="151.2353" y="-78"/>
        </g>
      </a>
    </g>
    <g id="y.node.24">
      <g fill="white" transform="matrix(1,0,0,1,63,115)" stroke="white">
        <rect x="436" width="96" height="70" y="-23.8096" stroke="none"/>
      </g>
      <g/>
      <g stroke-linecap="butt" transform="matrix(1,0,0,1,63,115)" stroke-miterlimit="1.45">
        <rect fill="none" x="436" width="96" height="70" y="-23.8096"/>
      </g>
    </g>
    <g id="y.node.25">
      <g fill="white" transform="matrix(1,0,0,1,63,115)" stroke="white">
        <rect x="444" width="96" height="70" y="-15.8096" stroke="none"/>
      </g>
      <g/>
      <g stroke-linecap="butt" transform="matrix(1,0,0,1,63,115)" stroke-miterlimit="1.45">
        <rect fill="none" x="444" width="96" height="70" y="-15.8096"/>
      </g>
    </g>
    <g id="y.node.26">
      <g fill="white" transform="matrix(1,0,0,1,63,115)" stroke="white">
        <rect x="452" width="96" height="70" y="-4.8096" stroke="none"/>
      </g>
      <g>
        <g font-size="14" stroke-miterlimit="1.45" font-weight="bold" font-family="sans-serif" transform="matrix(1,0,0,1,63,115)" stroke-linecap="butt">
          <text x="472.769" xml:space="preserve" y="27.1142" stroke="none">(failover</text>
          <text x="469.6519" xml:space="preserve" y="44.2656" stroke="none">capacity)</text>
        </g>
      </g>
      <g stroke-linecap="butt" transform="matrix(1,0,0,1,63,115)" stroke-miterlimit="1.45">
        <rect fill="none" x="452" width="96" height="70" y="-4.8096"/>
      </g>
    </g>
    <g id="y.node.27">
      <a target="_blank" xlink:type="simple" xlink:href="pandemic/" xlink:show="new">
        <g fill="white" transform="matrix(1,0,0,1,63,115)" stroke="white">
          <rect x="562" width="96" height="70" y="-4.8096" stroke="none"/>
        </g>
        <g>
          <g font-size="14" stroke-miterlimit="1.45" font-weight="bold" font-family="sans-serif" transform="matrix(1,0,0,1,63,115)" stroke-linecap="butt">
            <text x="594.8379" xml:space="preserve" y="35.6899" stroke="none">(nfs)</text>
          </g>
        </g>
        <g stroke-dasharray="6,2" stroke-miterlimit="1.45" transform="matrix(1,0,0,1,63,115)" stroke-linecap="butt">
          <rect fill="none" x="562" width="96" height="70" y="-4.8096"/>
        </g>
      </a>
    </g>
    <g id="y.node.28">
      <a target="_blank" xlink:type="simple" xlink:href="typhoon/" xlink:show="new">
        <g fill="white" transform="matrix(1,0,0,1,63,115)" stroke="white">
          <rect x="310" width="96" height="70" y="-43" stroke="none"/>
        </g>
        <g>
          <g font-size="14" stroke-miterlimit="1.45" font-weight="bold" font-family="sans-serif" transform="matrix(1,0,0,1,63,115)" stroke-linecap="butt">
            <text x="330.3965" xml:space="preserve" y="-11.0762" stroke="none">typhoon</text>
            <text x="352.9448" xml:space="preserve" y="6.0752" stroke="none">rt</text>
          </g>
        </g>
        <g fill="rgb(51,102,255)" stroke-miterlimit="1.45" transform="matrix(1,0,0,1,63,115)" stroke-linecap="butt" stroke="rgb(51,102,255)">
          <rect fill="none" x="310" width="96" height="70" y="-43"/>
        </g>
      </a>
    </g>
    <g id="y.node.29">
      <a target="_blank" xlink:type="simple" xlink:href="monsoon/" xlink:show="new">
        <g fill="white" transform="matrix(1,0,0,1,63,115)" stroke="white">
          <rect x="200" width="96" height="70" y="233" stroke="none"/>
        </g>
        <g>
          <g font-size="14" stroke-linecap="butt" transform="matrix(1,0,0,1,63,115)" fill="rgb(153,153,153)" font-family="sans-serif" stroke="rgb(153,153,153)" stroke-miterlimit="1.45">
            <text x="219.2036" xml:space="preserve" y="264.9238" stroke="none">monsoon</text>
            <text x="223.0967" xml:space="preserve" y="282.0752" stroke="none">ldap/krb</text>
          </g>
        </g>
        <g fill="rgb(153,153,153)" stroke-miterlimit="1.45" transform="matrix(1,0,0,1,63,115)" stroke-linecap="butt" stroke="rgb(153,153,153)">
          <rect fill="none" x="200" width="96" height="70" y="233"/>
        </g>
      </a>
    </g>
    <g id="y.node.30">
      <g>
        <g stroke-miterlimit="1.45" font-family="sans-serif" transform="matrix(1,0,0,1,63,115)" stroke-linecap="butt">
          <text x="540.2004" xml:space="preserve" y="-84.0887" stroke="none">Last updated: 12/19/2012</text>
        </g>
      </g>
    </g>
    <g id="y.node.31">
      <a target="_blank" xlink:type="simple" xlink:href="blight/" xlink:show="new">
        <g fill="white" transform="matrix(1,0,0,1,63,115)" stroke="white">
          <rect x="90" width="96" height="70" y="135" stroke="none"/>
        </g>
        <g>
          <g font-size="14" stroke-miterlimit="1.45" font-weight="bold" font-family="sans-serif" transform="matrix(1,0,0,1,63,115)" stroke-linecap="butt">
            <text x="118.9517" xml:space="preserve" y="166.9238" stroke="none">blight</text>
            <text x="124.7725" xml:space="preserve" y="184.0752" stroke="none">wiki</text>
          </g>
        </g>
        <g stroke-linecap="butt" transform="matrix(1,0,0,1,63,115)" stroke-miterlimit="1.45">
          <rect fill="none" x="90" width="96" height="70" y="135"/>
        </g>
      </a>
    </g>
    <g id="y.node.32">
      <a target="_blank" xlink:type="simple" xlink:href="pox/" xlink:show="new">
        <g>
          <g font-size="14" stroke-miterlimit="1.45" font-weight="bold" font-family="sans-serif" transform="matrix(1,0,0,1,63,115)" stroke-linecap="butt">
            <text x="428.5" xml:space="preserve" y="99.3779" stroke="none">fallingrocks</text>
            <text x="428.5" xml:space="preserve" y="116.5292" stroke="none">sorried users / kvm hypervisor</text>
          </g>
        </g>
        <g stroke-linecap="butt" transform="matrix(1,0,0,1,63,115)" stroke-miterlimit="1.45">
          <rect fill="none" x="422.5" width="259" height="236.6973" y="79.3027"/>
        </g>
      </a>
    </g>
    <g id="y.node.33">
      <g fill="white" transform="matrix(1,0,0,1,63,115)" stroke="white">
        <rect x="442" width="96" height="70" y="130.3808" stroke="none"/>
      </g>
      <g/>
      <g stroke-linecap="butt" transform="matrix(1,0,0,1,63,115)" stroke-miterlimit="1.45">
        <rect fill="none" x="442" width="96" height="70" y="130.3808"/>
      </g>
    </g>
    <g id="y.node.34">
      <g fill="white" transform="matrix(1,0,0,1,63,115)" stroke="white">
        <rect x="450" width="96" height="70" y="138.3808" stroke="none"/>
      </g>
      <g/>
      <g stroke-linecap="butt" transform="matrix(1,0,0,1,63,115)" stroke-miterlimit="1.45">
        <rect fill="none" x="450" width="96" height="70" y="138.3808"/>
      </g>
    </g>
    <g id="y.node.35">
      <g fill="white" transform="matrix(1,0,0,1,63,115)" stroke="white">
        <rect x="458" width="96" height="70" y="149.3808" stroke="none"/>
      </g>
      <g>
        <g font-size="14" stroke-miterlimit="1.45" font-weight="bold" font-family="sans-serif" transform="matrix(1,0,0,1,63,115)" stroke-linecap="butt">
          <text x="478.769" xml:space="preserve" y="181.3046" stroke="none">(failover</text>
          <text x="475.6519" xml:space="preserve" y="198.4559" stroke="none">capacity)</text>
        </g>
      </g>
      <g stroke-linecap="butt" transform="matrix(1,0,0,1,63,115)" stroke-miterlimit="1.45">
        <rect fill="none" x="458" width="96" height="70" y="149.3808"/>
      </g>
    </g>
    <g id="y.edge.0"/>
  </g>
</svg>
