<svg xmlns="http://www.w3.org/2000/svg" xmlns:xlink="http://www.w3.org/1999/xlink" fill-opacity="1" color-rendering="auto" color-interpolation="auto" stroke="black" text-rendering="auto" stroke-linecap="square" width="1009" stroke-miterlimit="10" stroke-opacity="1" shape-rendering="auto" fill="black" stroke-dasharray="none" font-weight="normal" stroke-width="1" height="638" font-family="'Dialog'" font-style="normal" stroke-linejoin="miter" font-size="12" stroke-dashoffset="0" image-rendering="auto">
  <!--Generated by ySVG-->
  <defs id="genericDefs"/>
  <g>
    <defs id="defs1">
      <clipPath clipPathUnits="userSpaceOnUse" id="clipPath1">
        <path d="M0 0 L1009 0 L1009 638 L0 638 L0 0 Z"/>
      </clipPath>
      <clipPath clipPathUnits="userSpaceOnUse" id="clipPath2">
        <path d="M-63 -93 L946 -93 L946 545 L-63 545 L-63 -93 Z"/>
      </clipPath>
    </defs>
    <g fill="white" transform="translate(63,93)" stroke="white">
      <rect x="-63" width="1009" height="638" y="-93" clip-path="url(#clipPath2)" stroke="none"/>
    </g>
    <g id="y.node.0">
      <a target="_blank" xlink:type="simple" xlink:href="hal/" xlink:show="new">
        <g>
          <g font-size="14" stroke-miterlimit="1.45" font-weight="bold" font-family="sans-serif" transform="matrix(1,0,0,1,63,93)" stroke-linecap="butt">
            <text x="-42" xml:space="preserve" y="-57.9248" stroke="none">hal</text>
          </g>
          <g font-size="14" stroke-miterlimit="1.45" font-weight="bold" font-family="sans-serif" transform="matrix(1,0,0,1,63,93)" stroke-linecap="butt">
            <text x="-42" xml:space="preserve" y="-40.7734" stroke="none">kvm hypervisor</text>
          </g>
        </g>
        <g stroke-linecap="butt" transform="matrix(1,0,0,1,63,93)" stroke-miterlimit="1.45">
          <rect fill="none" x="-48" width="463" height="205" y="-78"/>
        </g>
      </a>
    </g>
    <g id="y.node.1">
      <a target="_blank" xlink:type="simple" xlink:href="flood/" xlink:show="new">
        <g fill="white" transform="matrix(1,0,0,1,63,93)" stroke="white">
          <rect x="90" width="96" height="70" y="46" stroke="none"/>
        </g>
        <g>
          <g font-size="14" stroke-miterlimit="1.45" font-weight="bold" font-family="sans-serif" transform="matrix(1,0,0,1,63,93)" stroke-linecap="butt">
            <text x="120.8965" xml:space="preserve" y="77.9238" stroke="none">flood</text>
            <text x="129.438" xml:space="preserve" y="95.0752" stroke="none">irc</text>
          </g>
        </g>
        <g stroke-linecap="butt" transform="matrix(1,0,0,1,63,93)" stroke-miterlimit="1.45">
          <rect fill="none" x="90" width="96" height="70" y="46"/>
        </g>
      </a>
    </g>
    <g id="y.node.2">
      <a target="_blank" xlink:type="simple" xlink:href="meltdown/" xlink:show="new">
        <g fill="white" transform="matrix(1,0,0,1,63,93)" stroke="white">
          <rect x="200" width="96" height="70" y="46" stroke="none"/>
        </g>
        <g>
          <g font-size="14" stroke-miterlimit="1.45" font-weight="bold" font-family="sans-serif" transform="matrix(1,0,0,1,63,93)" stroke-linecap="butt">
            <text x="229.3311" xml:space="preserve" y="77.9238" stroke="none">death</text>
            <text x="230.5103" xml:space="preserve" y="95.0752" stroke="none">httpd</text>
          </g>
        </g>
        <g stroke-linecap="butt" transform="matrix(1,0,0,1,63,93)" stroke-miterlimit="1.45">
          <rect fill="none" x="200" width="96" height="70" y="46"/>
        </g>
      </a>
    </g>
    <g id="y.node.3">
      <g fill="white" transform="matrix(1,0,0,1,63,93)" stroke="white">
        <rect x="90" width="96" height="70" y="-43" stroke="none"/>
      </g>
      <g>
        <g font-size="14" stroke-miterlimit="1.45" font-weight="bold" font-family="sans-serif" transform="matrix(1,0,0,1,63,93)" stroke-linecap="butt">
          <text x="102.5967" xml:space="preserve" y="-11.0762" stroke="none">maelstrom</text>
          <text x="117.769" xml:space="preserve" y="6.0752" stroke="none">mysql</text>
        </g>
      </g>
      <g fill="rgb(51,102,255)" stroke-miterlimit="1.45" transform="matrix(1,0,0,1,63,93)" stroke-linecap="butt" stroke="rgb(51,102,255)">
        <rect fill="none" x="90" width="96" height="70" y="-43"/>
      </g>
    </g>
    <g id="y.node.4">
      <a target="_blank" xlink:type="simple" xlink:href="pollution/" xlink:show="new">
        <g fill="white" transform="matrix(1,0,0,1,63,93)" stroke="white">
          <rect x="200" width="96" height="70" y="-43" stroke="none"/>
        </g>
        <g>
          <g font-size="14" stroke-miterlimit="1.45" font-weight="bold" font-family="sans-serif" transform="matrix(1,0,0,1,63,93)" stroke-linecap="butt">
            <text x="218.4551" xml:space="preserve" y="-11.0762" stroke="none">pollution</text>
            <text x="223.4932" xml:space="preserve" y="6.0752" stroke="none">backup</text>
          </g>
        </g>
        <g stroke-linecap="butt" transform="matrix(1,0,0,1,63,93)" stroke-miterlimit="1.45">
          <rect fill="none" x="200" width="96" height="70" y="-43"/>
        </g>
      </a>
    </g>
    <g id="y.node.5">
      <a target="_blank" xlink:type="simple" xlink:href="famine/" xlink:show="new">
        <g>
          <g font-size="14" stroke-miterlimit="1.45" font-weight="bold" font-family="sans-serif" transform="matrix(1,0,0,1,63,93)" stroke-linecap="butt">
            <text x="430" xml:space="preserve" y="156.0752" stroke="none">famine</text>
            <text x="430" xml:space="preserve" y="173.2266" stroke="none">ESXi hypervisor</text>
          </g>
        </g>
        <g stroke-linecap="butt" transform="matrix(1,0,0,1,63,93)" stroke-miterlimit="1.45">
          <rect fill="none" x="424" width="257.5" height="205" y="136"/>
        </g>
      </a>
    </g>
    <g id="y.node.6">
      <g fill="white" transform="matrix(1,0,0,1,63,93)" stroke="white">
        <rect x="436" width="96" height="70" y="260" stroke="none"/>
      </g>
      <g>
        <g font-size="14" stroke-linecap="butt" transform="matrix(1,0,0,1,63,93)" fill="rgb(153,153,153)" font-family="sans-serif" stroke="rgb(153,153,153)" stroke-miterlimit="1.45">
          <text x="456.7725" xml:space="preserve" y="291.9238" stroke="none">(zombie)</text>
          <text x="467.2656" xml:space="preserve" y="309.0752" stroke="none">pgsql</text>
        </g>
      </g>
      <g fill="rgb(153,153,153)" stroke-miterlimit="1.45" transform="matrix(1,0,0,1,63,93)" stroke-linecap="butt" stroke="rgb(153,153,153)">
        <rect fill="none" x="436" width="96" height="70" y="260"/>
      </g>
    </g>
    <g id="y.node.7">
      <a target="_blank" xlink:type="simple" xlink:href="pox/" xlink:show="new">
        <g>
          <g font-size="14" stroke-miterlimit="1.45" font-weight="bold" font-family="sans-serif" transform="matrix(1,0,0,1,63,93)" stroke-linecap="butt">
            <text x="695" xml:space="preserve" y="-57.9248" stroke="none">pox</text>
            <text x="695" xml:space="preserve" y="-40.7734" stroke="none">ESXi hypervisor</text>
          </g>
        </g>
        <g stroke-linecap="butt" transform="matrix(1,0,0,1,63,93)" stroke-miterlimit="1.45">
          <rect fill="none" x="689" width="242" height="205" y="-78"/>
        </g>
      </a>
    </g>
    <g id="y.node.8">
      <a target="_blank" xlink:type="simple" xlink:href="tsunami/" xlink:show="new">
        <g fill="white" transform="matrix(1,0,0,1,63,93)" stroke="white">
          <rect x="704" width="96" height="70" y="46" stroke="none"/>
        </g>
        <g>
          <g font-size="14" stroke-miterlimit="1.45" font-weight="bold" font-family="sans-serif" transform="matrix(1,0,0,1,63,93)" stroke-linecap="butt">
            <text x="725.1621" xml:space="preserve" y="77.9238" stroke="none">tsunami</text>
            <text x="735.2827" xml:space="preserve" y="95.0752" stroke="none">login</text>
          </g>
        </g>
        <g fill="rgb(51,102,255)" stroke-miterlimit="1.45" transform="matrix(1,0,0,1,63,93)" stroke-linecap="butt" stroke="rgb(51,102,255)">
          <rect fill="none" x="704" width="96" height="70" y="46"/>
        </g>
      </a>
    </g>
    <g id="y.node.9">
      <a target="_blank" xlink:type="simple" xlink:href="pileup/" xlink:show="new">
        <g fill="white" transform="matrix(1,0,0,1,63,93)" stroke="white">
          <rect x="-20" width="96" height="70" y="146" stroke="none"/>
        </g>
        <g>
          <g font-size="14" stroke-miterlimit="1.45" font-weight="bold" font-family="sans-serif" transform="matrix(1,0,0,1,63,93)" stroke-linecap="butt">
            <text x="7.3896" xml:space="preserve" y="177.9238" stroke="none">pileup</text>
            <text x="-3.1069" xml:space="preserve" y="195.0752" stroke="none">2nd login</text>
          </g>
        </g>
        <g fill="rgb(51,102,255)" stroke-miterlimit="1.45" transform="matrix(1,0,0,1,63,93)" stroke-linecap="butt" stroke="rgb(51,102,255)">
          <rect fill="none" x="-20" width="96" height="70" y="146"/>
        </g>
      </a>
    </g>
    <g id="y.node.10">
      <a target="_blank" xlink:type="simple" xlink:href="lightning/" xlink:show="new">
        <g fill="white" transform="matrix(1,0,0,1,63,93)" stroke="white">
          <rect x="310" width="96" height="70" y="46" stroke="none"/>
        </g>
        <g>
          <g font-size="14" stroke-miterlimit="1.45" font-weight="bold" font-family="sans-serif" transform="matrix(1,0,0,1,63,93)" stroke-linecap="butt">
            <text x="328.4551" xml:space="preserve" y="77.9238" stroke="none">lightning</text>
            <text x="324.1621" xml:space="preserve" y="95.0752" stroke="none">puppeteer</text>
          </g>
        </g>
        <g stroke-linecap="butt" transform="matrix(1,0,0,1,63,93)" stroke-miterlimit="1.45">
          <rect fill="none" x="310" width="96" height="70" y="46"/>
        </g>
      </a>
    </g>
    <g id="y.node.11">
      <a target="_blank" xlink:type="simple" xlink:href="pestilence/" xlink:show="new">
        <g fill="white" transform="matrix(1,0,0,1,63,93)" stroke="white">
          <rect x="-20" width="96" height="70" y="224" stroke="none"/>
        </g>
        <g>
          <g font-size="14" stroke-miterlimit="1.45" font-weight="bold" font-family="sans-serif" transform="matrix(1,0,0,1,63,93)" stroke-linecap="butt">
            <text x="-6.2378" xml:space="preserve" y="255.9238" stroke="none">pestilence</text>
            <text x="15.5552" xml:space="preserve" y="273.0752" stroke="none">dns</text>
          </g>
        </g>
        <g fill="rgb(51,102,255)" stroke-miterlimit="1.45" transform="matrix(1,0,0,1,63,93)" stroke-linecap="butt" stroke="rgb(51,102,255)">
          <rect fill="none" x="-20" width="96" height="70" y="224"/>
        </g>
      </a>
    </g>
    <g id="y.node.12">
      <a target="_blank" xlink:type="simple" xlink:href="supernova/" xlink:show="new">
        <g fill="white" transform="matrix(1,0,0,1,63,93)" stroke="white">
          <rect x="90" width="96" height="70" y="146" stroke="none"/>
        </g>
        <g>
          <g font-size="14" stroke-miterlimit="1.45" font-weight="bold" font-family="sans-serif" transform="matrix(1,0,0,1,63,93)" stroke-linecap="butt">
            <text x="102.6001" xml:space="preserve" y="177.9238" stroke="none">supernova</text>
            <text x="90.1621" xml:space="preserve" y="195.0752" stroke="none">account mgmt</text>
          </g>
        </g>
        <g stroke-linecap="butt" transform="matrix(1,0,0,1,63,93)" stroke-miterlimit="1.45">
          <rect fill="none" x="90" width="96" height="70" y="146"/>
        </g>
      </a>
    </g>
    <g id="y.node.13">
      <a target="_blank" xlink:type="simple" xlink:href="epidemic/" xlink:show="new">
        <g fill="white" transform="matrix(1,0,0,1,63,93)" stroke="white">
          <rect x="-20" width="96" height="70" y="460" stroke="none"/>
        </g>
        <g>
          <g font-size="14" stroke-linecap="butt" transform="matrix(1,0,0,1,63,93)" fill="rgb(153,153,153)" font-family="sans-serif" stroke="rgb(153,153,153)" stroke-miterlimit="1.45">
            <text x="-0.0137" xml:space="preserve" y="491.9238" stroke="none">epidemic</text>
            <text x="18.6621" xml:space="preserve" y="509.0752" stroke="none">nfs</text>
          </g>
        </g>
        <g fill="rgb(153,153,153)" stroke-miterlimit="1.45" transform="matrix(1,0,0,1,63,93)" stroke-linecap="butt" stroke="rgb(153,153,153)">
          <rect fill="none" x="-20" width="96" height="70" y="460"/>
        </g>
      </a>
    </g>
    <g id="y.node.14">
      <a target="_blank" xlink:type="simple" xlink:href="emp/" xlink:show="new">
        <g fill="white" transform="matrix(1,0,0,1,63,93)" stroke="white">
          <rect x="90" width="96" height="70" y="224" stroke="none"/>
        </g>
        <g>
          <g font-size="14" stroke-miterlimit="1.45" font-weight="bold" font-family="sans-serif" transform="matrix(1,0,0,1,63,93)" stroke-linecap="butt">
            <text x="123.6069" xml:space="preserve" y="255.9238" stroke="none">emp</text>
            <text x="116.2173" xml:space="preserve" y="273.0752" stroke="none">zabbix</text>
          </g>
        </g>
        <g stroke-linecap="butt" transform="matrix(1,0,0,1,63,93)" stroke-miterlimit="1.45">
          <rect fill="none" x="90" width="96" height="70" y="224"/>
        </g>
      </a>
    </g>
    <g id="y.node.15">
      <a target="_blank" xlink:type="simple" xlink:href="monsoon/" xlink:show="new">
        <g fill="white" transform="matrix(1,0,0,1,63,93)" stroke="white">
          <rect x="200" width="96" height="70" y="146" stroke="none"/>
        </g>
        <g>
          <g font-size="14" stroke-miterlimit="1.45" font-weight="bold" font-family="sans-serif" transform="matrix(1,0,0,1,63,93)" stroke-linecap="butt">
            <text x="217.6587" xml:space="preserve" y="177.9238" stroke="none">firestorm</text>
            <text x="237.1069" xml:space="preserve" y="195.0752" stroke="none">krb</text>
          </g>
        </g>
        <g fill="red" stroke-miterlimit="1.45" transform="matrix(1,0,0,1,63,93)" stroke-linecap="butt" stroke="red">
          <rect fill="none" x="200" width="96" height="70" y="146"/>
        </g>
      </a>
    </g>
    <g id="y.node.16">
      <a target="_blank" xlink:type="simple" xlink:href="tempest/" xlink:show="new">
        <g fill="white" transform="matrix(1,0,0,1,63,93)" stroke="white">
          <rect x="200" width="96" height="70" y="302" stroke="none"/>
        </g>
        <g>
          <g font-size="14" stroke-linecap="butt" transform="matrix(1,0,0,1,63,93)" fill="rgb(153,153,153)" font-family="sans-serif" stroke="rgb(153,153,153)" stroke-miterlimit="1.45">
            <text x="223.1001" xml:space="preserve" y="333.9238" stroke="none">tempest</text>
            <text x="210.2485" xml:space="preserve" y="351.0752" stroke="none">ldap backup</text>
          </g>
        </g>
        <g fill="rgb(153,153,153)" stroke-miterlimit="1.45" transform="matrix(1,0,0,1,63,93)" stroke-linecap="butt" stroke="rgb(153,153,153)">
          <rect fill="none" x="200" width="96" height="70" y="302"/>
        </g>
      </a>
    </g>
    <g id="y.node.17">
      <g fill="white" transform="matrix(1,0,0,1,63,93)" stroke="white">
        <rect x="-36" width="96" height="70" y="27" stroke="none"/>
      </g>
      <g/>
      <g stroke-linecap="butt" transform="matrix(1,0,0,1,63,93)" stroke-miterlimit="1.45">
        <rect fill="none" x="-36" width="96" height="70" y="27"/>
      </g>
    </g>
    <g id="y.node.18">
      <g fill="white" transform="matrix(1,0,0,1,63,93)" stroke="white">
        <rect x="-28" width="96" height="70" y="35" stroke="none"/>
      </g>
      <g/>
      <g stroke-linecap="butt" transform="matrix(1,0,0,1,63,93)" stroke-miterlimit="1.45">
        <rect fill="none" x="-28" width="96" height="70" y="35"/>
      </g>
    </g>
    <g id="y.node.19">
      <g fill="white" transform="matrix(1,0,0,1,63,93)" stroke="white">
        <rect x="-20" width="96" height="70" y="46" stroke="none"/>
      </g>
      <g>
        <g font-size="14" stroke-miterlimit="1.45" font-weight="bold" font-family="sans-serif" transform="matrix(1,0,0,1,63,93)" stroke-linecap="butt">
          <text x="-2.7344" xml:space="preserve" y="86.4995" stroke="none">staff vms</text>
        </g>
      </g>
      <g stroke-linecap="butt" transform="matrix(1,0,0,1,63,93)" stroke-miterlimit="1.45">
        <rect fill="none" x="-20" width="96" height="70" y="46"/>
      </g>
    </g>
    <g id="y.node.20">
      <a target="_blank" xlink:type="simple" xlink:href="biohazard/" xlink:show="new">
        <g fill="white" transform="matrix(1,0,0,1,63,93)" stroke="white">
          <rect x="310" width="96" height="70" y="146" stroke="none"/>
        </g>
        <g>
          <g font-size="14" stroke-miterlimit="1.45" font-weight="bold" font-family="sans-serif" transform="matrix(1,0,0,1,63,93)" stroke-linecap="butt">
            <text x="324.9414" xml:space="preserve" y="177.9238" stroke="none">biohazard</text>
            <text x="347.8896" xml:space="preserve" y="195.0752" stroke="none">AD</text>
          </g>
        </g>
        <g fill="red" stroke-miterlimit="1.45" transform="matrix(1,0,0,1,63,93)" stroke-linecap="butt" stroke="red">
          <rect fill="none" x="310" width="96" height="70" y="146"/>
        </g>
      </a>
    </g>
    <g id="y.node.21">
      <a target="_blank" xlink:type="simple" xlink:href="tornado/" xlink:show="new">
        <g fill="white" transform="matrix(1,0,0,1,63,93)" stroke="white">
          <rect x="310" width="96" height="70" y="224" stroke="none"/>
        </g>
        <g>
          <g font-size="14" stroke-miterlimit="1.45" font-weight="bold" font-family="sans-serif" transform="matrix(1,0,0,1,63,93)" stroke-linecap="butt">
            <text x="331.9482" xml:space="preserve" y="255.9238" stroke="none">tornado</text>
            <text x="321.438" xml:space="preserve" y="273.0752" stroke="none">AD backup</text>
          </g>
        </g>
        <g fill="red" stroke-miterlimit="1.45" transform="matrix(1,0,0,1,63,93)" stroke-linecap="butt" stroke="red">
          <rect fill="none" x="310" width="96" height="70" y="224"/>
        </g>
      </a>
    </g>
    <g id="y.node.22">
      <a target="_blank" xlink:type="simple" xlink:href="zombie/" xlink:show="new">
        <g fill="white" transform="matrix(1,0,0,1,63,93)" stroke="white">
          <rect x="547" width="96" height="70" y="260" stroke="none"/>
        </g>
        <g>
          <g font-size="14" stroke-linecap="butt" transform="matrix(1,0,0,1,63,93)" fill="rgb(153,153,153)" font-family="sans-serif" stroke="rgb(153,153,153)" stroke-miterlimit="1.45">
            <text x="572.4346" xml:space="preserve" y="291.9238" stroke="none">zombie</text>
            <text x="568.145" xml:space="preserve" y="309.0752" stroke="none">old httpd</text>
          </g>
        </g>
        <g fill="rgb(153,153,153)" stroke-miterlimit="1.45" transform="matrix(1,0,0,1,63,93)" stroke-linecap="butt" stroke="rgb(153,153,153)">
          <rect fill="none" x="547" width="96" height="70" y="260"/>
        </g>
      </a>
    </g>
    <g id="y.node.23">
      <a target="_blank" xlink:type="simple" xlink:href="jaws/" xlink:show="new">
        <g fill="white" transform="matrix(1,0,0,1,63,93)" stroke="white">
          <rect x="812" width="96" height="70" y="46" stroke="none"/>
        </g>
        <g>
          <g font-size="14" stroke-miterlimit="1.45" font-weight="bold" font-family="sans-serif" transform="matrix(1,0,0,1,63,93)" stroke-linecap="butt">
            <text x="844.8242" xml:space="preserve" y="77.9238" stroke="none">jaws</text>
            <text x="836.2759" xml:space="preserve" y="95.0752" stroke="none">oldwiki</text>
          </g>
        </g>
        <g stroke-linecap="butt" transform="matrix(1,0,0,1,63,93)" stroke-miterlimit="1.45">
          <rect fill="none" x="812" width="96" height="70" y="46"/>
        </g>
      </a>
    </g>
    <g id="y.node.24">
      <a target="_blank" xlink:type="simple" xlink:href="sandstorm/" xlink:show="new">
        <g fill="white" transform="matrix(1,0,0,1,63,93)" stroke="white">
          <rect x="-20" width="96" height="70" y="380" stroke="none"/>
        </g>
        <g>
          <g font-size="14" stroke-miterlimit="1.45" font-weight="bold" font-family="sans-serif" transform="matrix(1,0,0,1,63,93)" stroke-linecap="butt">
            <text x="-7.7861" xml:space="preserve" y="411.9238" stroke="none">sandstorm</text>
            <text x="13.9932" xml:space="preserve" y="429.0752" stroke="none">mail</text>
          </g>
        </g>
        <g fill="rgb(51,102,255)" stroke-miterlimit="1.45" transform="matrix(1,0,0,1,63,93)" stroke-linecap="butt" stroke="rgb(51,102,255)">
          <rect fill="none" x="-20" width="96" height="70" y="380"/>
        </g>
      </a>
    </g>
    <g id="y.node.25">
      <a target="_blank" xlink:type="simple" xlink:href="blackhole/" xlink:show="new">
        <g fill="white" transform="matrix(1,0,0,1,63,93)" stroke="white">
          <rect x="90" width="96" height="70" y="380" stroke="none"/>
        </g>
        <g>
          <g font-size="14" stroke-miterlimit="1.45" font-weight="bold" font-family="sans-serif" transform="matrix(1,0,0,1,63,93)" stroke-linecap="butt">
            <text x="105.7104" xml:space="preserve" y="411.9238" stroke="none">blackhole</text>
            <text x="96.7622" xml:space="preserve" y="429.0752" stroke="none">mail storage</text>
          </g>
        </g>
        <g fill="rgb(51,102,255)" stroke-miterlimit="1.45" transform="matrix(1,0,0,1,63,93)" stroke-linecap="butt" stroke="rgb(51,102,255)">
          <rect fill="none" x="90" width="96" height="70" y="380"/>
        </g>
      </a>
    </g>
    <g id="y.node.26">
      <a target="_blank" xlink:type="simple" xlink:href="surge/" xlink:show="new">
        <g fill="white" transform="matrix(1,0,0,1,63,93)" stroke="white">
          <rect x="310" width="96" height="70" y="-43" stroke="none"/>
        </g>
        <g>
          <g font-size="14" stroke-linecap="butt" transform="matrix(1,0,0,1,63,93)" fill="rgb(153,153,153)" font-family="sans-serif" stroke="rgb(153,153,153)" stroke-miterlimit="1.45">
            <text x="340.4897" xml:space="preserve" y="-11.0762" stroke="none">surge</text>
            <text x="325.7173" xml:space="preserve" y="6.0752" stroke="none">deb-mirror</text>
          </g>
        </g>
        <g fill="rgb(153,153,153)" stroke-miterlimit="1.45" transform="matrix(1,0,0,1,63,93)" stroke-linecap="butt" stroke="rgb(153,153,153)">
          <rect fill="none" x="310" width="96" height="70" y="-43"/>
        </g>
      </a>
    </g>
    <g id="y.node.27">
      <a target="_blank" xlink:type="simple" xlink:href="pox/" xlink:show="new">
        <g>
          <g font-size="14" stroke-miterlimit="1.45" font-weight="bold" font-family="sans-serif" transform="matrix(1,0,0,1,63,93)" stroke-linecap="butt">
            <text x="428.5" xml:space="preserve" y="-57.9248" stroke="none">pandemic</text>
            <text x="428.5" xml:space="preserve" y="-40.7734" stroke="none">disk array / kvm hypervisor</text>
          </g>
        </g>
        <g stroke-linecap="butt" transform="matrix(1,0,0,1,63,93)" stroke-miterlimit="1.45">
          <rect fill="none" x="422.5" width="259" height="205" y="-78"/>
        </g>
      </a>
    </g>
    <g id="y.node.28">
      <g fill="white" transform="matrix(1,0,0,1,63,93)" stroke="white">
        <rect x="436" width="96" height="70" y="28" stroke="none"/>
      </g>
      <g/>
      <g stroke-linecap="butt" transform="matrix(1,0,0,1,63,93)" stroke-miterlimit="1.45">
        <rect fill="none" x="436" width="96" height="70" y="28"/>
      </g>
    </g>
    <g id="y.node.29">
      <g fill="white" transform="matrix(1,0,0,1,63,93)" stroke="white">
        <rect x="444" width="96" height="70" y="36" stroke="none"/>
      </g>
      <g/>
      <g stroke-linecap="butt" transform="matrix(1,0,0,1,63,93)" stroke-miterlimit="1.45">
        <rect fill="none" x="444" width="96" height="70" y="36"/>
      </g>
    </g>
    <g id="y.node.30">
      <g fill="white" transform="matrix(1,0,0,1,63,93)" stroke="white">
        <rect x="452" width="96" height="70" y="47" stroke="none"/>
      </g>
      <g>
        <g font-size="14" stroke-miterlimit="1.45" font-weight="bold" font-family="sans-serif" transform="matrix(1,0,0,1,63,93)" stroke-linecap="butt">
          <text x="472.769" xml:space="preserve" y="78.9238" stroke="none">(failover</text>
          <text x="469.6519" xml:space="preserve" y="96.0752" stroke="none">capacity)</text>
        </g>
      </g>
      <g stroke-linecap="butt" transform="matrix(1,0,0,1,63,93)" stroke-miterlimit="1.45">
        <rect fill="none" x="452" width="96" height="70" y="47"/>
      </g>
    </g>
    <g id="y.node.31">
      <a target="_blank" xlink:type="simple" xlink:href="flood/" xlink:show="new">
        <g fill="white" transform="matrix(1,0,0,1,63,93)" stroke="white">
          <rect x="562" width="96" height="70" y="47" stroke="none"/>
        </g>
        <g>
          <g font-size="14" stroke-miterlimit="1.45" font-weight="bold" font-family="sans-serif" transform="matrix(1,0,0,1,63,93)" stroke-linecap="butt">
            <text x="594.8379" xml:space="preserve" y="87.4995" stroke="none">(nfs)</text>
          </g>
        </g>
        <g stroke-dasharray="6,2" stroke-miterlimit="1.45" transform="matrix(1,0,0,1,63,93)" stroke-linecap="butt">
          <rect fill="none" x="562" width="96" height="70" y="47"/>
        </g>
      </a>
    </g>
    <g id="y.node.32">
      <a target="_blank" xlink:type="simple" xlink:href="blackhole/" xlink:show="new">
        <g fill="white" transform="matrix(1,0,0,1,63,93)" stroke="white">
          <rect x="-20" width="96" height="70" y="302" stroke="none"/>
        </g>
        <g>
          <g font-size="14" stroke-miterlimit="1.45" font-weight="bold" font-family="sans-serif" transform="matrix(1,0,0,1,63,93)" stroke-linecap="butt">
            <text x="0.3965" xml:space="preserve" y="333.9238" stroke="none">typhoon</text>
            <text x="22.9448" xml:space="preserve" y="351.0752" stroke="none">rt</text>
          </g>
        </g>
        <g fill="rgb(51,102,255)" stroke-miterlimit="1.45" transform="matrix(1,0,0,1,63,93)" stroke-linecap="butt" stroke="rgb(51,102,255)">
          <rect fill="none" x="-20" width="96" height="70" y="302"/>
        </g>
      </a>
    </g>
    <g id="y.node.33">
      <a target="_blank" xlink:type="simple" xlink:href="monsoon/" xlink:show="new">
        <g fill="white" transform="matrix(1,0,0,1,63,93)" stroke="white">
          <rect x="200" width="96" height="70" y="224" stroke="none"/>
        </g>
        <g>
          <g font-size="14" stroke-miterlimit="1.45" font-weight="bold" font-family="sans-serif" transform="matrix(1,0,0,1,63,93)" stroke-linecap="butt">
            <text x="216.5034" xml:space="preserve" y="255.9238" stroke="none">monsoon</text>
            <text x="233.6104" xml:space="preserve" y="273.0752" stroke="none">ldap</text>
          </g>
        </g>
        <g fill="red" stroke-miterlimit="1.45" transform="matrix(1,0,0,1,63,93)" stroke-linecap="butt" stroke="red">
          <rect fill="none" x="200" width="96" height="70" y="224"/>
        </g>
      </a>
    </g>
    <g id="y.edge.0"/>
  </g>
</svg>

