<svg xmlns="http://www.w3.org/2000/svg" xmlns:xlink="http://www.w3.org/1999/xlink" fill-opacity="1" color-rendering="auto" color-interpolation="auto" stroke="black" text-rendering="auto" stroke-linecap="square" width="1011" stroke-miterlimit="10" stroke-opacity="1" shape-rendering="auto" fill="black" stroke-dasharray="none" font-weight="normal" stroke-width="1" height="558" font-family="'Dialog'" font-style="normal" stroke-linejoin="miter" font-size="12" stroke-dashoffset="0" image-rendering="auto">
  <!--Generated by ySVG-->
  <defs id="genericDefs"/>
  <g>
    <defs id="defs1">
      <clipPath clipPathUnits="userSpaceOnUse" id="clipPath1">
        <path d="M0 0 L1011 0 L1011 558 L0 558 L0 0 Z"/>
      </clipPath>
      <clipPath clipPathUnits="userSpaceOnUse" id="clipPath2">
        <path d="M-63 -47 L948 -47 L948 511 L-63 511 L-63 -47 Z"/>
      </clipPath>
    </defs>
    <g fill="white" transform="translate(63,47)" stroke="white">
      <rect x="-63" width="1011" height="558" y="-47" clip-path="url(#clipPath2)" stroke="none"/>
    </g>
    <g id="y.node.0">
      <a target="_blank" xlink:type="simple" xlink:href="hal/" xlink:show="new">
        <g>
          <g font-size="14" stroke-miterlimit="1.45" font-weight="bold" font-family="sans-serif" transform="matrix(1,0,0,1,63,47)" stroke-linecap="butt">
            <text x="-42" xml:space="preserve" y="-11.9248" stroke="none">hal</text>
          </g>
          <g font-size="14" stroke-miterlimit="1.45" font-weight="bold" font-family="sans-serif" transform="matrix(1,0,0,1,63,47)" stroke-linecap="butt">
            <text x="-42" xml:space="preserve" y="5.2266" stroke="none">kvm hypervisor</text>
          </g>
        </g>
        <g stroke-linecap="butt" transform="matrix(1,0,0,1,63,47)" stroke-miterlimit="1.45">
          <rect fill="none" x="-48" width="463" height="205" y="-32"/>
        </g>
      </a>
    </g>
    <g id="y.node.1">
      <a target="_blank" xlink:type="simple" xlink:href="flood/" xlink:show="new">
        <g fill="white" transform="matrix(1,0,0,1,63,47)" stroke="white">
          <rect x="90" width="96" height="70" y="92" stroke="none"/>
        </g>
        <g>
          <g font-size="14" stroke-miterlimit="1.45" font-weight="bold" font-family="sans-serif" transform="matrix(1,0,0,1,63,47)" stroke-linecap="butt">
            <text x="120.8965" xml:space="preserve" y="123.9238" stroke="none">flood</text>
            <text x="129.438" xml:space="preserve" y="141.0752" stroke="none">irc</text>
          </g>
        </g>
        <g stroke-linecap="butt" transform="matrix(1,0,0,1,63,47)" stroke-miterlimit="1.45">
          <rect fill="none" x="90" width="96" height="70" y="92"/>
        </g>
      </a>
    </g>
    <g id="y.node.2">
      <a target="_blank" xlink:type="simple" xlink:href="meltdown/" xlink:show="new">
        <g fill="white" transform="matrix(1,0,0,1,63,47)" stroke="white">
          <rect x="200" width="96" height="70" y="92" stroke="none"/>
        </g>
        <g>
          <g font-size="14" stroke-miterlimit="1.45" font-weight="bold" font-family="sans-serif" transform="matrix(1,0,0,1,63,47)" stroke-linecap="butt">
            <text x="215.3345" xml:space="preserve" y="123.9238" stroke="none">meltdown</text>
            <text x="214.9517" xml:space="preserve" y="141.0752" stroke="none">new httpd</text>
          </g>
        </g>
        <g stroke-linecap="butt" transform="matrix(1,0,0,1,63,47)" stroke-miterlimit="1.45">
          <rect fill="none" x="200" width="96" height="70" y="92"/>
        </g>
      </a>
    </g>
    <g id="y.node.3">
      <g fill="white" transform="matrix(1,0,0,1,63,47)" stroke="white">
        <rect x="90" width="96" height="70" y="3" stroke="none"/>
      </g>
      <g>
        <g font-size="14" stroke-miterlimit="1.45" font-weight="bold" font-family="sans-serif" transform="matrix(1,0,0,1,63,47)" stroke-linecap="butt">
          <text x="102.5967" xml:space="preserve" y="34.9238" stroke="none">maelstrom</text>
          <text x="117.769" xml:space="preserve" y="52.0752" stroke="none">mysql</text>
        </g>
      </g>
      <g fill="rgb(51,102,255)" stroke-miterlimit="1.45" transform="matrix(1,0,0,1,63,47)" stroke-linecap="butt" stroke="rgb(51,102,255)">
        <rect fill="none" x="90" width="96" height="70" y="3"/>
      </g>
    </g>
    <g id="y.node.4">
      <a target="_blank" xlink:type="simple" xlink:href="pollution/" xlink:show="new">
        <g fill="white" transform="matrix(1,0,0,1,63,47)" stroke="white">
          <rect x="200" width="96" height="70" y="3" stroke="none"/>
        </g>
        <g>
          <g font-size="14" stroke-miterlimit="1.45" font-weight="bold" font-family="sans-serif" transform="matrix(1,0,0,1,63,47)" stroke-linecap="butt">
            <text x="218.4551" xml:space="preserve" y="34.9238" stroke="none">pollution</text>
            <text x="223.4932" xml:space="preserve" y="52.0752" stroke="none">backup</text>
          </g>
        </g>
        <g stroke-linecap="butt" transform="matrix(1,0,0,1,63,47)" stroke-miterlimit="1.45">
          <rect fill="none" x="200" width="96" height="70" y="3"/>
        </g>
      </a>
    </g>
    <g id="y.node.5">
      <a target="_blank" xlink:type="simple" xlink:href="famine/" xlink:show="new">
        <g>
          <g font-size="14" stroke-miterlimit="1.45" font-weight="bold" font-family="sans-serif" transform="matrix(1,0,0,1,63,47)" stroke-linecap="butt">
            <text x="435" xml:space="preserve" y="-11.9248" stroke="none">famine</text>
            <text x="435" xml:space="preserve" y="5.2266" stroke="none">ESXi hypervisor</text>
          </g>
        </g>
        <g stroke-linecap="butt" transform="matrix(1,0,0,1,63,47)" stroke-miterlimit="1.45">
          <rect fill="none" x="429" width="230" height="205" y="-32"/>
        </g>
      </a>
    </g>
    <g id="y.node.6">
      <a target="_blank" xlink:type="simple" xlink:href="zombie/" xlink:show="new">
        <g fill="white" transform="matrix(1,0,0,1,63,47)" stroke="white">
          <rect x="441" width="96" height="70" y="92" stroke="none"/>
        </g>
        <g>
          <g font-size="14" stroke-linecap="butt" transform="matrix(1,0,0,1,63,47)" fill="rgb(153,153,153)" font-family="sans-serif" stroke="rgb(153,153,153)" stroke-miterlimit="1.45">
            <text x="466.4346" xml:space="preserve" y="123.9238" stroke="none">zombie</text>
            <text x="472.2656" xml:space="preserve" y="141.0752" stroke="none">pgsql</text>
          </g>
        </g>
        <g fill="rgb(153,153,153)" stroke-miterlimit="1.45" transform="matrix(1,0,0,1,63,47)" stroke-linecap="butt" stroke="rgb(153,153,153)">
          <rect fill="none" x="441" width="96" height="70" y="92"/>
        </g>
      </a>
    </g>
    <g id="y.node.7">
      <a target="_blank" xlink:type="simple" xlink:href="pox/" xlink:show="new">
        <g>
          <g font-size="14" stroke-miterlimit="1.45" font-weight="bold" font-family="sans-serif" transform="matrix(1,0,0,1,63,47)" stroke-linecap="butt">
            <text x="680" xml:space="preserve" y="-11.9248" stroke="none">pox</text>
            <text x="680" xml:space="preserve" y="5.2266" stroke="none">ESXi hypervisor</text>
          </g>
        </g>
        <g stroke-linecap="butt" transform="matrix(1,0,0,1,63,47)" stroke-miterlimit="1.45">
          <rect fill="none" x="674" width="259" height="205" y="-32"/>
        </g>
      </a>
    </g>
    <g id="y.node.8">
      <a target="_blank" xlink:type="simple" xlink:href="tsunami/" xlink:show="new">
        <g fill="white" transform="matrix(1,0,0,1,63,47)" stroke="white">
          <rect x="689" width="96" height="70" y="92" stroke="none"/>
        </g>
        <g>
          <g font-size="14" stroke-miterlimit="1.45" font-weight="bold" font-family="sans-serif" transform="matrix(1,0,0,1,63,47)" stroke-linecap="butt">
            <text x="710.1621" xml:space="preserve" y="123.9238" stroke="none">tsunami</text>
            <text x="720.2827" xml:space="preserve" y="141.0752" stroke="none">login</text>
          </g>
        </g>
        <g fill="rgb(51,102,255)" stroke-miterlimit="1.45" transform="matrix(1,0,0,1,63,47)" stroke-linecap="butt" stroke="rgb(51,102,255)">
          <rect fill="none" x="689" width="96" height="70" y="92"/>
        </g>
      </a>
    </g>
    <g id="y.node.9">
      <a target="_blank" xlink:type="simple" xlink:href="pileup/" xlink:show="new">
        <g fill="white" transform="matrix(1,0,0,1,63,47)" stroke="white">
          <rect x="-20" width="96" height="70" y="192" stroke="none"/>
        </g>
        <g>
          <g font-size="14" stroke-miterlimit="1.45" font-weight="bold" font-family="sans-serif" transform="matrix(1,0,0,1,63,47)" stroke-linecap="butt">
            <text x="7.3896" xml:space="preserve" y="223.9238" stroke="none">pileup</text>
            <text x="-3.1069" xml:space="preserve" y="241.0752" stroke="none">2nd login</text>
          </g>
        </g>
        <g fill="rgb(51,102,255)" stroke-miterlimit="1.45" transform="matrix(1,0,0,1,63,47)" stroke-linecap="butt" stroke="rgb(51,102,255)">
          <rect fill="none" x="-20" width="96" height="70" y="192"/>
        </g>
      </a>
    </g>
    <g id="y.node.10">
      <a target="_blank" xlink:type="simple" xlink:href="lightning/" xlink:show="new">
        <g fill="white" transform="matrix(1,0,0,1,63,47)" stroke="white">
          <rect x="310" width="96" height="70" y="92" stroke="none"/>
        </g>
        <g>
          <g font-size="14" stroke-miterlimit="1.45" font-weight="bold" font-family="sans-serif" transform="matrix(1,0,0,1,63,47)" stroke-linecap="butt">
            <text x="328.4551" xml:space="preserve" y="123.9238" stroke="none">lightning</text>
            <text x="311.7139" xml:space="preserve" y="141.0752" stroke="none">puppetmaster</text>
          </g>
        </g>
        <g stroke-linecap="butt" transform="matrix(1,0,0,1,63,47)" stroke-miterlimit="1.45">
          <rect fill="none" x="310" width="96" height="70" y="92"/>
        </g>
      </a>
    </g>
    <g id="y.node.11">
      <a target="_blank" xlink:type="simple" xlink:href="pestilence/" xlink:show="new">
        <g fill="white" transform="matrix(1,0,0,1,63,47)" stroke="white">
          <rect x="-20" width="96" height="70" y="270" stroke="none"/>
        </g>
        <g>
          <g font-size="14" stroke-miterlimit="1.45" font-weight="bold" font-family="sans-serif" transform="matrix(1,0,0,1,63,47)" stroke-linecap="butt">
            <text x="-6.2378" xml:space="preserve" y="301.9238" stroke="none">pestilence</text>
            <text x="15.5552" xml:space="preserve" y="319.0752" stroke="none">dns</text>
          </g>
        </g>
        <g fill="rgb(51,102,255)" stroke-miterlimit="1.45" transform="matrix(1,0,0,1,63,47)" stroke-linecap="butt" stroke="rgb(51,102,255)">
          <rect fill="none" x="-20" width="96" height="70" y="270"/>
        </g>
      </a>
    </g>
    <g id="y.node.12">
      <a target="_blank" xlink:type="simple" xlink:href="supernova/" xlink:show="new">
        <g fill="white" transform="matrix(1,0,0,1,63,47)" stroke="white">
          <rect x="90" width="96" height="70" y="192" stroke="none"/>
        </g>
        <g>
          <g font-size="14" stroke-miterlimit="1.45" font-weight="bold" font-family="sans-serif" transform="matrix(1,0,0,1,63,47)" stroke-linecap="butt">
            <text x="102.6001" xml:space="preserve" y="223.9238" stroke="none">supernova</text>
            <text x="90.1621" xml:space="preserve" y="241.0752" stroke="none">account mgmt</text>
          </g>
        </g>
        <g stroke-linecap="butt" transform="matrix(1,0,0,1,63,47)" stroke-miterlimit="1.45">
          <rect fill="none" x="90" width="96" height="70" y="192"/>
        </g>
      </a>
    </g>
    <g id="y.node.13">
      <a target="_blank" xlink:type="simple" xlink:href="epidemic/" xlink:show="new">
        <g fill="white" transform="matrix(1,0,0,1,63,47)" stroke="white">
          <rect x="-20" width="96" height="70" y="348" stroke="none"/>
        </g>
        <g>
          <g font-size="14" stroke-miterlimit="1.45" font-weight="bold" font-family="sans-serif" transform="matrix(1,0,0,1,63,47)" stroke-linecap="butt">
            <text x="-2.3447" xml:space="preserve" y="379.9238" stroke="none">epidemic</text>
            <text x="17.5" xml:space="preserve" y="397.0752" stroke="none">nfs</text>
          </g>
        </g>
        <g fill="rgb(51,102,255)" stroke-miterlimit="1.45" transform="matrix(1,0,0,1,63,47)" stroke-linecap="butt" stroke="rgb(51,102,255)">
          <rect fill="none" x="-20" width="96" height="70" y="348"/>
        </g>
      </a>
    </g>
    <g id="y.node.14">
      <a target="_blank" xlink:type="simple" xlink:href="emp/" xlink:show="new">
        <g fill="white" transform="matrix(1,0,0,1,63,47)" stroke="white">
          <rect x="90" width="96" height="70" y="270" stroke="none"/>
        </g>
        <g>
          <g font-size="14" stroke-miterlimit="1.45" font-weight="bold" font-family="sans-serif" transform="matrix(1,0,0,1,63,47)" stroke-linecap="butt">
            <text x="123.6069" xml:space="preserve" y="301.9238" stroke="none">emp</text>
            <text x="116.2173" xml:space="preserve" y="319.0752" stroke="none">zabbix</text>
          </g>
        </g>
        <g stroke-linecap="butt" transform="matrix(1,0,0,1,63,47)" stroke-miterlimit="1.45">
          <rect fill="none" x="90" width="96" height="70" y="270"/>
        </g>
      </a>
    </g>
    <g id="y.node.15">
      <a target="_blank" xlink:type="simple" xlink:href="monsoon/" xlink:show="new">
        <g fill="white" transform="matrix(1,0,0,1,63,47)" stroke="white">
          <rect x="200" width="96" height="70" y="192" stroke="none"/>
        </g>
        <g>
          <g font-size="14" stroke-miterlimit="1.45" font-weight="bold" font-family="sans-serif" transform="matrix(1,0,0,1,63,47)" stroke-linecap="butt">
            <text x="216.5034" xml:space="preserve" y="223.9238" stroke="none">monsoon</text>
            <text x="218.8276" xml:space="preserve" y="241.0752" stroke="none">ldap, krb</text>
          </g>
        </g>
        <g fill="red" stroke-miterlimit="1.45" transform="matrix(1,0,0,1,63,47)" stroke-linecap="butt" stroke="red">
          <rect fill="none" x="200" width="96" height="70" y="192"/>
        </g>
      </a>
    </g>
    <g id="y.node.16">
      <a target="_blank" xlink:type="simple" xlink:href="tempest/" xlink:show="new">
        <g fill="white" transform="matrix(1,0,0,1,63,47)" stroke="white">
          <rect x="200" width="96" height="70" y="270" stroke="none"/>
        </g>
        <g>
          <g font-size="14" stroke-linecap="butt" transform="matrix(1,0,0,1,63,47)" fill="rgb(153,153,153)" font-family="sans-serif" stroke="rgb(153,153,153)" stroke-miterlimit="1.45">
            <text x="223.1001" xml:space="preserve" y="301.9238" stroke="none">tempest</text>
            <text x="210.2485" xml:space="preserve" y="319.0752" stroke="none">ldap backup</text>
          </g>
        </g>
        <g fill="rgb(153,153,153)" stroke-miterlimit="1.45" transform="matrix(1,0,0,1,63,47)" stroke-linecap="butt" stroke="rgb(153,153,153)">
          <rect fill="none" x="200" width="96" height="70" y="270"/>
        </g>
      </a>
    </g>
    <g id="y.node.17">
      <g fill="white" transform="matrix(1,0,0,1,63,47)" stroke="white">
        <rect x="-36" width="96" height="70" y="73" stroke="none"/>
      </g>
      <g/>
      <g stroke-linecap="butt" transform="matrix(1,0,0,1,63,47)" stroke-miterlimit="1.45">
        <rect fill="none" x="-36" width="96" height="70" y="73"/>
      </g>
    </g>
    <g id="y.node.18">
      <g fill="white" transform="matrix(1,0,0,1,63,47)" stroke="white">
        <rect x="-28" width="96" height="70" y="81" stroke="none"/>
      </g>
      <g/>
      <g stroke-linecap="butt" transform="matrix(1,0,0,1,63,47)" stroke-miterlimit="1.45">
        <rect fill="none" x="-28" width="96" height="70" y="81"/>
      </g>
    </g>
    <g id="y.node.19">
      <g fill="white" transform="matrix(1,0,0,1,63,47)" stroke="white">
        <rect x="-20" width="96" height="70" y="92" stroke="none"/>
      </g>
      <g>
        <g font-size="14" stroke-miterlimit="1.45" font-weight="bold" font-family="sans-serif" transform="matrix(1,0,0,1,63,47)" stroke-linecap="butt">
          <text x="-4.3989" xml:space="preserve" y="132.4995" stroke="none">staff vm's</text>
        </g>
      </g>
      <g stroke-linecap="butt" transform="matrix(1,0,0,1,63,47)" stroke-miterlimit="1.45">
        <rect fill="none" x="-20" width="96" height="70" y="92"/>
      </g>
    </g>
    <g id="y.node.20">
      <a target="_blank" xlink:type="simple" xlink:href="biohazard/" xlink:show="new">
        <g fill="white" transform="matrix(1,0,0,1,63,47)" stroke="white">
          <rect x="303" width="96" height="70" y="192" stroke="none"/>
        </g>
        <g>
          <g font-size="14" stroke-miterlimit="1.45" font-weight="bold" font-family="sans-serif" transform="matrix(1,0,0,1,63,47)" stroke-linecap="butt">
            <text x="317.9414" xml:space="preserve" y="223.9238" stroke="none">biohazard</text>
            <text x="340.8896" xml:space="preserve" y="241.0752" stroke="none">AD</text>
          </g>
        </g>
        <g fill="red" stroke-miterlimit="1.45" transform="matrix(1,0,0,1,63,47)" stroke-linecap="butt" stroke="red">
          <rect fill="none" x="303" width="96" height="70" y="192"/>
        </g>
      </a>
    </g>
    <g id="y.node.21">
      <a target="_blank" xlink:type="simple" xlink:href="tornado/" xlink:show="new">
        <g fill="white" transform="matrix(1,0,0,1,63,47)" stroke="white">
          <rect x="303" width="96" height="70" y="270" stroke="none"/>
        </g>
        <g>
          <g font-size="14" stroke-miterlimit="1.45" font-weight="bold" font-family="sans-serif" transform="matrix(1,0,0,1,63,47)" stroke-linecap="butt">
            <text x="324.9482" xml:space="preserve" y="301.9238" stroke="none">tornado</text>
            <text x="314.438" xml:space="preserve" y="319.0752" stroke="none">AD backup</text>
          </g>
        </g>
        <g fill="red" stroke-miterlimit="1.45" transform="matrix(1,0,0,1,63,47)" stroke-linecap="butt" stroke="red">
          <rect fill="none" x="303" width="96" height="70" y="270"/>
        </g>
      </a>
    </g>
    <g id="y.node.22">
      <a target="_blank" xlink:type="simple" xlink:href="death/" xlink:show="new">
        <g fill="white" transform="matrix(1,0,0,1,63,47)" stroke="white">
          <rect x="552" width="96" height="70" y="92" stroke="none"/>
        </g>
        <g>
          <g font-size="14" stroke-miterlimit="1.45" font-weight="bold" font-family="sans-serif" transform="matrix(1,0,0,1,63,47)" stroke-linecap="butt">
            <text x="581.3311" xml:space="preserve" y="123.9238" stroke="none">death</text>
            <text x="582.5103" xml:space="preserve" y="141.0752" stroke="none">httpd</text>
          </g>
        </g>
        <g fill="rgb(51,102,255)" stroke-miterlimit="1.45" transform="matrix(1,0,0,1,63,47)" stroke-linecap="butt" stroke="rgb(51,102,255)">
          <rect fill="none" x="552" width="96" height="70" y="92"/>
        </g>
      </a>
    </g>
    <g id="y.node.23">
      <a target="_blank" xlink:type="simple" xlink:href="jaws/" xlink:show="new">
        <g fill="white" transform="matrix(1,0,0,1,63,47)" stroke="white">
          <rect x="797" width="96" height="70" y="92" stroke="none"/>
        </g>
        <g>
          <g font-size="14" stroke-miterlimit="1.45" font-weight="bold" font-family="sans-serif" transform="matrix(1,0,0,1,63,47)" stroke-linecap="butt">
            <text x="829.8242" xml:space="preserve" y="123.9238" stroke="none">jaws</text>
            <text x="821.2759" xml:space="preserve" y="141.0752" stroke="none">oldwiki</text>
          </g>
        </g>
        <g stroke-linecap="butt" transform="matrix(1,0,0,1,63,47)" stroke-miterlimit="1.45">
          <rect fill="none" x="797" width="96" height="70" y="92"/>
        </g>
      </a>
    </g>
    <g id="y.node.24">
      <a target="_blank" xlink:type="simple" xlink:href="sandstorm/" xlink:show="new">
        <g fill="white" transform="matrix(1,0,0,1,63,47)" stroke="white">
          <rect x="-20" width="96" height="70" y="426" stroke="none"/>
        </g>
        <g>
          <g font-size="14" stroke-miterlimit="1.45" font-weight="bold" font-family="sans-serif" transform="matrix(1,0,0,1,63,47)" stroke-linecap="butt">
            <text x="-7.7861" xml:space="preserve" y="457.9238" stroke="none">sandstorm</text>
            <text x="13.9932" xml:space="preserve" y="475.0752" stroke="none">mail</text>
          </g>
        </g>
        <g fill="rgb(51,102,255)" stroke-miterlimit="1.45" transform="matrix(1,0,0,1,63,47)" stroke-linecap="butt" stroke="rgb(51,102,255)">
          <rect fill="none" x="-20" width="96" height="70" y="426"/>
        </g>
      </a>
    </g>
    <g id="y.node.25">
      <a target="_blank" xlink:type="simple" xlink:href="blackhole/" xlink:show="new">
        <g fill="white" transform="matrix(1,0,0,1,63,47)" stroke="white">
          <rect x="90" width="96" height="70" y="426" stroke="none"/>
        </g>
        <g>
          <g font-size="14" stroke-miterlimit="1.45" font-weight="bold" font-family="sans-serif" transform="matrix(1,0,0,1,63,47)" stroke-linecap="butt">
            <text x="105.7104" xml:space="preserve" y="457.9238" stroke="none">blackhole</text>
            <text x="96.7622" xml:space="preserve" y="475.0752" stroke="none">mail storage</text>
          </g>
        </g>
        <g fill="rgb(51,102,255)" stroke-miterlimit="1.45" transform="matrix(1,0,0,1,63,47)" stroke-linecap="butt" stroke="rgb(51,102,255)">
          <rect fill="none" x="90" width="96" height="70" y="426"/>
        </g>
      </a>
    </g>
    <g id="y.node.26">
      <a target="_blank" xlink:type="simple" xlink:href="surge/" xlink:show="new">
        <g fill="white" transform="matrix(1,0,0,1,63,47)" stroke="white">
          <rect x="310" width="96" height="70" y="3" stroke="none"/>
        </g>
        <g>
          <g font-size="14" stroke-miterlimit="1.45" font-weight="bold" font-family="sans-serif" transform="matrix(1,0,0,1,63,47)" stroke-linecap="butt">
            <text x="338.938" xml:space="preserve" y="34.9238" stroke="none">surge</text>
            <text x="322.6069" xml:space="preserve" y="52.0752" stroke="none">deb-mirror</text>
          </g>
        </g>
        <g stroke-linecap="butt" transform="matrix(1,0,0,1,63,47)" stroke-miterlimit="1.45">
          <rect fill="none" x="310" width="96" height="70" y="3"/>
        </g>
      </a>
    </g>
    <g id="y.edge.0"/>
  </g>
</svg>
